<?xml version="1.0" standalone="no"?>
<!DOCTYPE svg PUBLIC "-//W3C//DTD SVG 1.1//EN" "http://www.w3.org/Graphics/SVG/1.1/DTD/svg11.dtd" >
<svg xmlns="http://www.w3.org/2000/svg">
<metadata>Generated by IcoMoon</metadata>
<defs>
<font id="IA_icons" horiz-adv-x="1024">
<font-face units-per-em="1024" ascent="960" descent="-64" />
<missing-glyph horiz-adv-x="1024" />
<glyph unicode="&#x20;" d="" horiz-adv-x="512" />
<glyph unicode="&#xe600;" d="M511.997 933.97c-267.964 0-485.97-218.003-485.97-485.973s218.010-485.967 485.973-485.967 485.977 217.996 485.977 485.967-218.016 485.973-485.98 485.973zM511.997 35.939c-227.205 0-412.058 184.852-412.058 412.058s184.852 412.061 412.058 412.061c227.209 0 412.064-184.852 412.064-412.061 0-227.195-184.856-412.058-412.064-412.058zM311.18 495.165c-33.447 0-57.457-12.005-71.608-32.167-0.857 49.312 22.296 79.759 70.321 79.759 23.159 0 45.879-6.864 63.031-19.292l29.157 53.169c-25.296 15.435-63.464 24.873-96.911 24.873-84.473 0-138.923-62.177-138.923-157.802 0-92.194 48.879-149.221 129.488-149.221 67.758 0 112.35 40.311 112.35 103.765 0.003 58.324-37.731 96.915-96.905 96.915zM292.748 355.383c-30.88 0-45.025 19.715-45.025 42.011 0 24.453 16.719 42.025 46.309 42.025 27.443 0 43.308-15.005 43.308-40.735 0-27.884-17.152-43.302-44.592-43.302zM536.655 489.161h-27.006v48.452h127.351v60.46h-196.82v-169.366c18.435 1.28 66.034 2.147 81.459 2.147 29.6 0 46.746-13.739 46.746-37.301 0-25.757-17.145-40.332-46.746-40.332-27.006 0-54.016 12.872-76.319 36.902l-30.437-57.89c31.3-22.316 76.315-37.304 115.77-37.304 72.465 0 119.627 40.742 119.627 103.765 0 53.589-45.008 90.467-113.626 90.467zM785.719 461.295v72.035h-46.725v-72.035h-71.619v-46.752h71.619v-72.035h46.725v72.035h72.042v46.752z" />
<glyph unicode="&#xe601;" d="M506.115 941.199c-226.775 0-417.673-153.105-475.29-361.547h258.854v191.382l323.034-323.028-323.034-323.041v216.074h-264.998c48.876-220.931 245.791-386.239 481.434-386.239 272.391 0 493.206 220.815 493.206 493.199 0 272.387-220.815 493.199-493.206 493.199z" />
<glyph unicode="&#xe602;" d="M499.214 313.774c-15.77 0-28.546-12.78-28.546-28.539v-195.775h135.107v195.775c0 15.759-12.78 28.539-28.546 28.539h-78.015zM149.060 238.848c-15.766 0-28.546-12.786-28.546-28.546v-120.842h135.11v120.842c0 15.759-12.78 28.546-28.549 28.546h-78.015zM322.034 361.11c-16.043 0-29.044-12.78-29.044-28.542v-243.118h139.247v243.118c0.003 15.763-12.998 28.542-29.041 28.542h-81.162zM925.928 569.774h-78.008c-15.77 0-28.546-12.78-28.546-28.542v-451.779h135.107v451.775c-0.007 15.766-12.79 28.546-28.553 28.546zM670.734 483.99c-16.039 0-29.041-12.78-29.041-28.546v-365.995h139.247v365.995c0 15.766-13.001 28.546-29.044 28.546h-81.162zM86.566 52.876c-3.14 0-5.693 2.594-5.693 5.769l0.048 719.015c-25.795-2.86-45.937-25.068-45.937-51.975v-667.037c0-28.839 23.142-52.306 51.586-52.306h852.873c26.569 0 48.5 20.48 51.275 46.688l-904.151-0.154zM481.297 427.752c11.015-9.1 26.952-9.032 37.902 0.16l370.739 320.020v-74.243c0-16.353 13.261-29.607 29.607-29.607 16.353 0 29.607 13.254 29.607 29.607v137.789c0 0.044-0.007 0.085-0.007 0.13 0 0.751-0.048 1.505-0.102 2.253-0.024 0.225-0.024 0.461-0.044 0.686-0.099 0.963-0.246 1.922-0.433 2.874-0.082 0.393-0.212 0.768-0.3 1.15-0.14 0.556-0.253 1.113-0.427 1.659-0.177 0.56-0.393 1.092-0.594 1.632-0.133 0.369-0.246 0.734-0.399 1.096-0.338 0.795-0.707 1.563-1.099 2.324-0.061 0.096-0.099 0.201-0.147 0.294-0.474 0.864-0.983 1.703-1.529 2.509-0.089 0.133-0.212 0.256-0.297 0.389-0.474 0.669-0.952 1.328-1.481 1.952-0.027 0.034-0.051 0.065-0.072 0.096-0.208 0.239-0.423 0.451-0.628 0.679-0.42 0.468-0.826 0.925-1.273 1.362-0.345 0.341-0.707 0.655-1.065 0.976-0.358 0.311-0.7 0.635-1.065 0.935-0.413 0.341-0.853 0.645-1.287 0.959-0.355 0.253-0.683 0.505-1.041 0.741-0.44 0.29-0.901 0.556-1.352 0.819-0.375 0.222-0.758 0.454-1.15 0.662-0.427 0.222-0.867 0.427-1.307 0.631-0.447 0.212-0.887 0.42-1.345 0.604-0.399 0.167-0.809 0.304-1.215 0.444-0.509 0.181-1.007 0.362-1.526 0.515-0.386 0.116-0.785 0.205-1.188 0.307-0.532 0.133-1.072 0.27-1.625 0.372-0.427 0.085-0.867 0.137-1.3 0.201-0.509 0.075-1.031 0.16-1.546 0.212-0.539 0.051-1.082 0.061-1.632 0.075-0.382 0.017-0.754 0.061-1.133 0.061h-141.196c-16.35 0-29.611-13.254-29.611-29.607s13.261-29.607 29.611-29.607h66.768l-345.132-292.762-88.375 72.974c-11.022 9.1-26.962 9.028-37.898-0.164l-253.201-214.508v-77.227c11.489 11.366 272.415 230.54 272.415 230.54l88.375-72.967z" />
<glyph unicode="&#xe603;" d="M974.828 912.213h-4.519c-15.8 0-28.228-11.547-28.228-27.344v-119.429h-47.787v6.369c0 25.211-20.866 45.65-46.080 45.65s-46.080-20.439-46.080-45.65v-6.369h-20.48v6.369c0 25.211-20.866 45.65-46.080 45.65s-46.080-20.436-46.080-45.65v-6.369h-20.48v6.369c0 25.211-20.866 45.65-46.080 45.65s-46.080-20.436-46.080-45.65v-6.369h-361.813v6.369c0 25.211-20.869 45.65-46.080 45.65s-46.080-20.439-46.080-45.65v-6.369h-40.96v119.429c0 15.797-12.404 27.344-28.194 27.344h-4.526c-15.797 0-25.306-11.547-25.306-27.344v-884.473c0-15.793 9.51-26.849 25.306-26.849h4.526c15.79 0 28.194 11.056 28.194 26.849v113.097h40.96v-8.028c0-25.207 20.869-45.647 46.080-45.647s46.080 20.442 46.080 45.647v8.028h20.48v-8.028c0-25.207 22.576-45.647 47.787-45.647s47.787 20.439 47.787 45.647v8.028h20.48v-8.028c0-25.207 19.162-45.647 44.373-45.647s44.373 20.439 44.373 45.647v8.028h361.813v-8.028c0-25.207 20.866-45.647 46.080-45.647s46.080 20.439 46.080 45.647v8.028h47.787v-113.097c0-15.797 12.428-26.849 28.228-26.849h4.519c15.793 0 25.279 11.056 25.279 26.849v884.473c0 15.797-9.486 27.344-25.279 27.344zM942.080 171.52h-47.787v5.956c0 25.211-20.866 45.647-46.080 45.647s-46.080-20.436-46.080-45.647v-5.956h-361.813v5.956c0 25.211-19.162 45.647-44.373 45.647s-44.373-20.436-44.373-45.647v-5.956h-20.48v5.956c0 25.211-22.576 45.647-47.787 45.647s-47.787-20.436-47.787-45.647v-5.956h-20.48v5.956c0 25.211-20.869 45.647-46.080 45.647s-46.080-20.436-46.080-45.647v-5.956h-40.96v238.933h40.96v-7.817c0-25.211 20.869-45.647 46.080-45.647s46.080 20.436 46.080 45.647v7.817h20.48v-7.817c0-25.211 22.576-45.647 47.787-45.647s47.787 20.436 47.787 45.647v7.817h358.4v-7.817c0-25.211 20.866-45.647 46.080-45.647s46.080 20.436 46.080 45.647v7.817h20.48v-7.817c0-25.211 20.866-45.647 46.080-45.647s46.080 20.436 46.080 45.647v7.817h47.787v-238.933zM942.080 468.48h-47.787v6.161c0 25.211-20.866 45.65-46.080 45.65s-46.080-20.436-46.080-45.65v-6.161h-20.48v6.161c0 25.211-20.866 45.65-46.080 45.65s-46.080-20.436-46.080-45.65v-6.161h-358.4v6.161c0 25.211-22.576 45.65-47.787 45.65s-47.787-20.436-47.787-45.65v-6.161h-20.48v6.161c0 25.211-20.869 45.65-46.080 45.65s-46.080-20.439-46.080-45.65v-6.161h-40.96v235.52h40.96v-4.195c0-25.211 20.869-45.647 46.080-45.647s46.080 20.436 46.080 45.647v4.195h361.813v-4.195c0-25.211 20.866-45.647 46.080-45.647s46.080 20.436 46.080 45.647v4.195h20.48v-4.195c0-25.211 20.866-45.647 46.080-45.647s46.080 20.436 46.080 45.647v4.195h20.48v-4.195c0-25.211 20.866-45.647 46.080-45.647s46.080 20.436 46.080 45.647v4.195h47.787v-235.52z" />
<glyph unicode="&#xe604;" d="M177.186 649.888v155.057h262.226l-71.264 70.499 71.264 84.555h-318.669v-310.112h-120.743v-290.97h268.735v-422.919h134.42v422.919h160.727v290.97z" />
<glyph unicode="&#xe605;" d="M39.653 544.225v-528.012h941.298v528.012h-941.298zM705.799 382.334c0-25.528-20.698-46.237-46.24-46.237h-298.516c-25.539 0-46.24 20.695-46.24 46.237v38.393c0 25.532 20.702 46.24 46.24 46.24h298.516c25.532 0 46.24-20.702 46.24-46.24v-38.393zM146.128 605.764c0 9.103 7.407 16.514 16.514 16.514h702.338c9.1 0 16.514-7.41 16.514-16.514v-21.685h59.447v21.685c0 41.885-34.072 75.964-75.96 75.964h-702.338c-41.885 0-75.964-34.079-75.964-75.964v-21.685h59.45v21.685zM731.32 883.2h-435.019c-31.358 0-57.095-24.317-59.477-55.078h553.977c-2.383 30.758-28.122 55.078-59.481 55.078zM801.413 782.302h-575.212c-32.57 0-59.843-23.016-66.475-53.63h708.168c-6.636 30.614-33.901 53.63-66.481 53.63z" />
<glyph unicode="&#xe606;" d="M977.152 309.76c-5.113 31.734-22.292 59.576-48.36 78.38-20.634 14.899-44.954 22.781-70.352 22.781-38.588 0-75.090-18.657-97.652-49.9-61.020-84.494-89.935-119.081-119.586-136.888 2.802 10.192 4.267 20.866 4.267 31.785 0 66.355-53.982 120.347-120.34 120.347h-415.044c-35.727 0-64.799-29.078-64.799-64.799v-294.117c0-35.727 29.075-64.795 64.799-64.795h172.797c2.127 0 4.195 0.181 6.543 0.468 28.931-0.27 56.265-0.468 81.824-0.468 340.231 0 416.73 35 584.666 267.592 18.818 26.044 26.358 57.863 21.238 89.614zM910.892 252.648c-156.802-217.132-217.313-244.555-539.645-244.555-25.982 0-53.808 0.198-83.279 0.492-0.027 0-0.055 0-0.082 0-1.355 0-3.697-0.311-5.007-0.492h-172.797c-5.106 0-9.257 4.157-9.257 9.257v294.117c0 5.1 4.151 9.257 9.257 9.257h415.044c35.727 0 64.799-29.075 64.799-64.799 0-22.473-11.827-42.882-31.027-54.688-52.545-0.724-257.543 0.143-259.7 0.143-0.038 0-0.082 0-0.119 0-15.288 0-27.709-12.346-27.771-27.648-0.065-15.346 12.312-27.822 27.655-27.901 6.164-0.017 103.68-0.451 180.671-0.451 40.066 0 74.581 0.126 87.747 0.471 0.741 0.020 1.447 0.201 2.191 0.273 0.287 0.034 0.536-0.072 0.829-0.041 23.378 3.188 42.738 7.274 59.218 12.53 63.607 20.364 98.847 62.778 176.193 169.902 12.151 16.817 31.816 26.866 52.634 26.866 13.65 0 26.74-4.246 37.84-12.261 14.029-10.141 23.282-25.129 26.040-42.22s-1.314-34.229-11.435-48.254zM190 759.351h14.319l-10.315-26.877c-7.25-18.811-13.172-50.698-13.172-70.857v-158.785c0-23.514 19.255-42.749 42.759-42.749 23.514 0 42.752 19.238 42.752 42.749v24.436h390.874v-24.436c0-23.514 19.244-42.749 42.742-42.749s42.755 19.238 42.755 42.749v158.785c0 20.159-5.929 52.047-13.162 70.857l-10.336 26.877h14.336c18.48 0 33.597 15.118 33.597 33.577 0 18.48-15.118 33.594-33.594 33.594h-40.178l-29.105 75.732c-6.021 15.623-22.081 31.877-38.427 40.158h-328.12c-16.364-8.281-32.42-24.535-38.431-40.158l-29.119-75.732h-40.175c-18.47 0-33.594-15.114-33.594-33.594 0-18.459 15.124-33.577 33.594-33.577zM264.465 783.002l34.29 93.123c2.331 6.301 9.728 11.462 16.452 11.462h293.137c6.728 0 14.141-5.161 16.432-11.462l34.342-93.116c2.273-6.291-1.307-11.445-8.018-11.445h-378.651c-6.707 0-10.332 5.154-7.984 11.438zM228.512 661.617c0 14.302 4.844 40.4 9.991 53.753l3.27 8.516c8.588-0.225 20.685 0 30.676 0h378.658c9.967 0 20.053-0.089 30.686 0l3.273-8.527c5.134-13.353 9.981-39.462 9.981-53.743v-86.678h-466.534v86.678zM312.713 607.201c20.197 0 36.54 16.374 36.54 36.543 0 20.186-16.343 36.543-36.54 36.543-20.18 0-36.533-16.357-36.533-36.543 0-20.169 16.353-36.543 36.533-36.543zM606.594 607.201c20.18 0 36.54 16.374 36.54 36.543 0 20.186-16.36 36.543-36.54 36.543-20.176 0-36.54-16.357-36.54-36.543 0-20.169 16.364-36.543 36.54-36.543z" />
<glyph unicode="&#xe607;" d="M443.208 742.479h134.171v-406.924h-134.171v406.924zM510.293 949.76c-278.057 0-503.467-225.41-503.467-503.467 0-278.060 225.41-503.467 503.467-503.467 278.060 0 503.467 225.406 503.467 503.467 0 278.057-225.406 503.467-503.467 503.467zM510.293 40.588c-224.218 0-405.705 181.456-405.705 405.705 0 224.212 181.456 405.705 405.705 405.705 224.218 0 405.705-181.456 405.705-405.705 0-224.215-181.456-405.705-405.705-405.705zM582.7 202.964c0-39.989-32.418-72.407-72.407-72.407s-72.407 32.418-72.407 72.407c0 39.989 32.418 72.407 72.407 72.407s72.407-32.418 72.407-72.407z" />
<glyph unicode="&#xe608;" d="M510.502 941.148c-272.91 0-494.937-222.027-494.937-494.933s222.027-494.933 494.937-494.933c272.906 0 494.933 222.027 494.933 494.933 0 272.91-222.027 494.933-494.933 494.933zM510.502 25.876c-231.776 0-420.338 188.563-420.338 420.338s188.563 420.335 420.338 420.335c231.772 0 420.332-188.563 420.335-420.338 0-231.772-188.563-420.335-420.335-420.335zM567.351 195.744c0-31.401-25.455-56.856-56.856-56.856s-56.856 25.455-56.856 56.856c0 31.401 25.455 56.856 56.856 56.856s56.856-25.455 56.856-56.856zM510.495 297.315c27.464 0 49.732 22.269 49.732 49.732v404.057c0 27.464-22.265 49.729-49.732 49.729s-49.729-22.265-49.729-49.729v-404.057c0-27.464 22.262-49.732 49.729-49.732z" />
<glyph unicode="&#xe609;" d="M957.341 437.76l-124.621 338.613c-0.27 0.737-0.608 1.055-0.966 1.731 12.66 6.417 21.361 19.33 21.361 34.492 0 21.484-17.422 39.373-38.909 39.373-15.476 0-28.798-11.435-35.058-21.675h-203.124c-7.376 27.307-32.263 47.459-61.928 47.459-29.655 0-54.548-20.152-61.928-47.459h-203.1c-6.263 10.24-19.589 21.579-35.069 21.579-21.48 0-38.898-17.702-38.898-39.185 0-15.841 9.482-29.583 23.067-35.649-0.201-0.427-0.427-0.143-0.591-0.594l-124.621-338.685h-49.801c27.341-78.507 100.782-132.615 187.348-132.615 86.562 0 160.010 54.108 187.348 132.615h-44.203l-124.621 338.613c-0.099 0.273-0.246 0.389-0.358 0.655 8.97 3.656 16.237 8.892 20.398 19.132h203.104c3.29-13.653 8.629-23.439 18.869-31.614v-580.407c-40.96-16.667-67.946-56.992-68.229-101.366h-70.868c-24.668 0-45.223-20.746-45.223-45.421v-29.672h453.973v29.672c0 24.675-21.166 45.421-45.834 45.421h-69.468c-0.283 44.373-28.058 85.688-69.018 101.977v578.41c10.24 8.322 16.166 19.347 19.651 33h203.124c4.4-10.165 12.285-16.63 21.965-20.087l-124.467-338.313h-49.794c27.354-78.507 100.782-132.615 187.348-132.615s160.020 54.108 187.354 132.615h-44.213zM317.962 437.76h-209.319l104.66 285.010 104.66-285.010zM712.325 437.76l104.666 285.010 104.67-285.010h-209.336z" />
<glyph unicode="&#xe60a;" d="M879.968-41.619c-0.027 48.466-0.072 96.942-0.072 145.411-0.014 255.242 0.079 510.484-0.089 765.723-0.044 58.644-32.352 90.337-91.037 90.375-129.399 0.075-258.799 0.096-388.198 0.113-51.084 0.007-85.879-35.284-85.798-86.74 0.106-64.925 0.072-129.847 0.102-194.772 0.003-6.031 0-12.052 0-19.654-10.004 0-17.92 0.010-25.836 0-70.697-0.123-141.401 0.365-212.087-0.631-35.017-0.498-64.324-24.269-73.008-57.931-3.273-12.691-3.765-26.368-3.782-39.598-0.229-175.647-0.15-351.293-0.15-526.947 0-32.321 0-64.649 0-97.56 246.825 0 492.022 0 738.58 0 0 6.004 0 11.223 0 16.435 0.048 184.095 0.092 368.186 0.123 552.277 0.007 22.678 0.007 45.353-0.143 68.038-0.348 51.804-33.010 85.446-84.661 85.76-82.261 0.502-164.512 0.184-246.777 0.215-8.318 0-16.64 0-25.648 0-0.294 5.553-0.689 9.448-0.689 13.346-0.041 65.365-0.044 130.734-0.038 196.099 0 22.682 3.376 26.064 26.392 26.068 126.73 0.020 253.464 0.020 380.191 0 23.77-0.003 26.696-3.021 26.696-27.119-0.041-292.151-0.082-584.305-0.116-876.455-0.007-18.080-0.007-36.161-0.007-54.828 22.494 0 43.24 0 66.051 0 0 8.281 0.007 15.326 0 22.374zM647.414 593.831c20.186 0 25.481-4.431 25.481-21.914 0.048-185.388-0.014-370.787-0.041-556.179 0-3.98 0-7.953 0-13.135-84.999 0-169.182 0-255.311 0 0 55.818 0 111.94 0 168.868-33.724 0-65.519 0-99.137 0 0-56.245 0-112.415 0-169.315-84.75 0-167.683 0-252.498 0 0 38.519 0 75.807 0 113.073 0.003 149.832 0.003 299.657 0.027 449.481 0 25.614 3.454 29.112 29.327 29.119 184.050 0.041 368.101 0.034 552.151 0zM557.479 723.248c0 32.471 0 64.222 0 96.928-33.092 0-64.843 0-97.171 0 0-32.666 0-64.41 0-96.928 32.625 0 64.362 0 97.171 0zM732.546 723.548c0 32.847 0 64.611 0 96.727-32.785 0-64.58 0-97.055 0 0-32.604 0-64.389 0-96.727 33.417 0 65.212 0 97.055 0zM328.168 246.118c26.15-0.567 52.32-0.133 78.479-0.382 7.021-0.065 10.66 1.649 10.588 9.554-0.256 27.047 0.126 54.105-0.287 81.142-0.044 2.775-3.741 7.854-5.813 7.892-30.454 0.512-60.925 0.355-92.928 0.355 0-31.659-0.232-61.699 0.43-91.713 0.051-2.451 6.161-6.775 9.53-6.847zM416.236 516.478c-32.836 0-64.604 0-97.283 0 0-32.41 0-64.119 0-97.399 32.884 0 64.652 0 97.283 0 0 32.696 0 64.782 0 97.399zM591.261 344.054c-32.635 0-64.433 0-97.024 0 0-32.734 0-64.563 0-97.341 32.471 0 64.625 0 97.024 0 0 32.847 0 64.676 0 97.341zM241.231 343.801c-32.765 0-64.802 0-97.406 0 0-32.553 0-63.993 0-96.744 33.348 0 65.365 0 97.406 0 0 32.768 0 64.184 0 96.744zM240.828 516.069c-32.884 0-64.625 0-96.959 0 0-32.553 0-63.983 0-96.816 33.12 0 64.86 0 96.959 0 0 32.86 0 64.925 0 96.816zM590.879 516.048c-32.986 0-64.754 0-96.56 0 0-32.928 0-64.707 0-97.024 32.335 0 63.788 0 96.56 0 0 33.174 0 65.26 0 97.024zM144.353 74.458c32.823 0 64.539 0 96.833 0 0 32.785 0 64.532 0 96.652-32.85 0-64.915 0-96.833 0 0-32.901 0-64.662 0-96.652zM590.927 171.302c-32.908 0-64.645 0-96.928 0 0-32.375 0-63.805 0-96.539 33.137 0 65.174 0 96.928 0 0 33.062 0 64.782 0 96.539z" />
<glyph unicode="&#xe60b;" d="M271.015 687.295l480.43-0.096c14.967-0.007 27.098 13.182 27.095 29.457l0.003 73.387c0.014 16.275-12.107 29.474-27.068 29.474l-480.44 0.092c-14.961 0.010-27.095-13.189-27.095-29.464l-0.014-73.383c-0.003-16.271 12.121-29.467 27.088-29.467zM803.468 941.172l-582.038 0.116c-42.8 0.007-77.619-36.809-77.633-82.060l-0.164-825.614c-0.010-45.254 34.806-82.067 77.606-82.080l582.028-0.113c42.793-0.014 77.626 36.799 77.633 82.039l0.174 825.627c0.014 45.251-34.806 82.077-77.606 82.084zM824.801 33.492c-0.007-14.305-9.673-25.958-21.531-25.955l-582.021 0.119c-11.861-0.014-21.507 11.639-21.507 25.958l0.16 825.6c0.007 14.316 9.656 25.958 21.518 25.958l582.035-0.109c11.868 0 21.507-11.653 21.521-25.965l-0.174-825.607zM311.18 491.493l-42.977 0.010c-11.107 0.010-20.122-9.008-20.122-20.108l-0.003-42.991c-0.007-11.11 8.998-20.105 20.105-20.118h42.984c11.107 0 20.122 9.001 20.115 20.111l0.014 42.974c0 11.11-9.004 20.125-20.115 20.122zM311.17 380.416l-42.984 0.027c-11.107-0.024-20.122-9.004-20.125-20.125l-0.003-42.974c-0.007-11.121 9.004-20.125 20.105-20.132h42.988c11.11 0 20.122 9.008 20.125 20.122v42.967c0.007 11.107-8.998 20.115-20.105 20.115zM311.142 269.373l-42.984-0.014c-11.104 0.007-20.115-8.987-20.118-20.094l-0.007-42.988c-0.007-11.107 9.004-20.125 20.118-20.125l42.974-0.007c11.114 0.007 20.118 9.021 20.122 20.122l0.017 42.981c-0.007 11.117-9.015 20.111-20.122 20.125zM311.125 158.3l-42.984-0.007c-11.11 0.007-20.118-8.987-20.125-20.094l-0.003-42.988c-0.003-11.107 9.011-20.115 20.115-20.132h42.981c11.104 0 20.122 9.015 20.122 20.122l0.003 42.981c0.003 11.117-9.001 20.111-20.108 20.118zM422.973 491.472l-42.988 0.007c-11.104 0.003-20.111-9.001-20.115-20.111l-0.003-42.977c-0.003-11.11 8.998-20.118 20.105-20.118l42.988-0.014c11.107 0 20.115 9.001 20.118 20.111l0.007 42.981c0.003 11.11-9.001 20.122-20.111 20.122zM422.953 380.416l-42.984 0.007c-11.11-0.007-20.122-9.025-20.122-20.125v-42.981c-0.010-11.114 8.998-20.125 20.105-20.115l42.991-0.007c11.104-0.014 20.111 9.001 20.111 20.101l0.010 42.994c0.003 11.11-9.001 20.118-20.111 20.125zM422.939 269.35l-42.988 0.014c-11.11 0-20.118-9.018-20.115-20.125l-0.010-42.988c0-11.1 9.001-20.115 20.111-20.115l42.981-0.007c11.11 0 20.122 9.001 20.122 20.115l0.003 42.981c0.010 11.114-8.998 20.125-20.105 20.125zM422.926 158.276l-42.988 0.014c-11.1 0-20.118-9.004-20.125-20.118l-0.007-42.988c0.007-11.107 9.008-20.122 20.115-20.115h42.984c11.107 0 20.122 9.001 20.125 20.108l0.003 42.988c0.007 11.107-8.998 20.118-20.108 20.111zM534.767 491.452l-42.981 0.007c-11.107 0.003-20.115-9.008-20.115-20.108l-0.014-42.984c0.003-11.114 9.001-20.122 20.115-20.122l42.981-0.014c11.107 0 20.122 9.015 20.122 20.125l0.014 42.974c-0.003 11.107-9.015 20.118-20.122 20.122zM534.729 380.392l-42.967 0.007c-11.11 0-20.115-9.008-20.115-20.122l-0.010-42.974c-0.003-11.121 9.001-20.122 20.111-20.122l42.977-0.020c11.107 0.014 20.125 9.001 20.122 20.108l0.007 42.991c0 11.104-9.018 20.125-20.125 20.132zM534.729 269.312l-42.981 0.020c-11.11 0-20.115-9.008-20.118-20.115l-0.014-42.984c0-11.11 9.011-20.125 20.115-20.125l42.974-0.007c11.107 0 20.122 9.008 20.125 20.115h0.003v42.97c0.020 11.117-8.998 20.139-20.105 20.125zM534.705 158.263l-42.974 0.007c-11.107 0-20.111-9.004-20.122-20.118v-42.981c0-11.1 8.998-20.115 20.108-20.115l42.988-0.007c11.1-0.014 20.115 8.987 20.108 20.094l0.007 42.988c-0.007 11.104-9.001 20.132-20.115 20.132zM646.554 491.431l-42.981 0.010c-11.114 0-20.122-9.008-20.115-20.115l-0.007-42.984c-0.014-11.104 9.008-20.111 20.115-20.125l42.988 0.014c11.1-0.024 20.108 8.994 20.108 20.094l0.014 42.991c-0.003 11.097-9.008 20.111-20.122 20.115zM646.54 380.375h-42.988c-11.107 0.007-20.125-9.004-20.125-20.111l0.017-42.981c-0.020-11.104 8.98-20.118 20.108-20.125l42.981-0.007c11.107-0.007 20.115 9.008 20.115 20.122l0.007 42.984c0.007 11.107-9.008 20.118-20.115 20.118zM646.519 269.298l-42.974 0.007c-11.107 0.020-20.125-9.008-20.125-20.115l-0.020-42.974c-0.007-11.114 9.011-20.122 20.111-20.115l42.994-0.007c11.1-0.020 20.115 8.98 20.122 20.101v42.994c0.020 11.11-8.994 20.105-20.108 20.108zM646.506 158.239l-42.988 0.007c-11.107 0.007-20.125-9.008-20.118-20.122l-0.007-42.981c-0.007-11.107 8.994-20.108 20.105-20.115l43.001 0.007c11.1-0.020 20.122 8.987 20.122 20.101v42.977c0 11.107-9.015 20.125-20.115 20.125zM758.357 491.411h-42.988c-11.107 0.003-20.125-9.001-20.125-20.101l-0.007-42.974c0-11.11 9.001-20.132 20.111-20.139l42.994-0.007c11.1 0.014 20.118 9.004 20.118 20.125l0.014 42.977c0.003 11.104-9.008 20.115-20.118 20.118zM758.327 380.45h-42.988c-11.093-0.007-20.115-9.011-20.115-20.125v-42.974c-0.014-11.1 9.015-20.118 20.115-20.125l42.974-0.020c11.121 0.017 20.132 9.011 20.115 20.125l0.014 42.981c0.007 11.107-8.994 20.125-20.115 20.139zM758.316 258.799l-42.991 0.007c-11.107 0.007-20.115-9.001-20.108-20.115l-0.034-143.558c-0.007-11.11 8.994-20.125 20.115-20.128l42.974-0.007c11.121 0 20.125 9.008 20.125 20.115l0.034 143.565c0.010 11.11-9.008 20.122-20.115 20.122zM317.812 598.33l-46.042 0.007c-11.902 0.007-21.552-9.646-21.552-21.538l0.003-9.595c-0.007-11.902 9.639-21.559 21.538-21.552l46.036-0.010c11.909 0 21.552 9.643 21.552 21.542l0.007 9.598c0 11.895-9.643 21.548-21.542 21.548zM427.599 598.31l-46.029 0.007c-11.902 0.007-21.559-9.649-21.555-21.548v-9.595c-0.003-11.902 9.636-21.548 21.538-21.545l46.046-0.014c11.899-0.003 21.545 9.649 21.545 21.545v9.595c0.007 11.902-9.643 21.555-21.545 21.555zM537.399 598.286l-46.025 0.003c-11.902 0.003-21.538-9.639-21.552-21.538l-0.003-9.595c0-11.895 9.646-21.548 21.545-21.552l46.036-0.010c11.899-0.003 21.552 9.636 21.552 21.545l-0.010 9.598c0.003 11.892-9.639 21.545-21.542 21.548zM647.206 598.262l-46.039 0.010c-11.878-0.007-21.528-9.646-21.542-21.545l-0.014-9.591c0.014-11.906 9.653-21.552 21.548-21.552l46.029-0.014c11.906 0 21.565 9.646 21.565 21.548l0.014 9.595c-0.014 11.895-9.653 21.548-21.562 21.548zM757.006 598.245l-46.046 0.010c-11.892 0.003-21.542-9.646-21.552-21.545l0.014-9.598c-0.007-11.895 9.653-21.552 21.545-21.552l46.042-0.007c11.899-0.007 21.545 9.643 21.559 21.542l-0.014 9.602c0.020 11.895-9.639 21.542-21.548 21.548z" />
<glyph unicode="&#xe60c;" d="M538.341 138.185h94.764v88.443h54.548v77.53h-54.548v86.142h-94.764v-86.149h-84.989l119.446 236.032h-98.198l-126.918-245.214v-68.342h190.659zM281.412 754.964c25.047 0 45.353 16.719 45.353 37.345v111.572c0 20.623-20.309 37.345-45.353 37.345s-45.35-16.722-45.35-37.345v-111.572c0-20.627 20.306-37.345 45.35-37.345zM744.684 754.964c25.050 0 45.353 16.719 45.353 37.345v111.572c0 20.623-20.306 37.345-45.353 37.345-25.044 0-45.346-16.722-45.346-37.345v-111.572c0-20.627 20.303-37.345 45.346-37.345zM886.757 851.436h-52.497v-70.202c0-40.738-40.103-73.766-89.576-73.766-49.466 0-89.569 33.027-89.569 73.766v70.202h-284.122v-70.202c0-40.738-40.107-73.766-89.576-73.766-49.463 0-89.573 33.027-89.573 73.766v70.202h-54.6c-41.578 0-75.281-33.703-75.281-75.284v-749.51c0-41.578 33.703-75.284 75.281-75.284h749.513c41.578 0 75.284 33.707 75.284 75.284v749.51c0 41.581-33.707 75.284-75.284 75.284zM892.201 37.707c0-10.472-9.735-19.866-20.2-19.866h-716.513c-10.472 0-20.227 9.393-20.227 19.866v594.93h756.941v-594.93z" />
<glyph unicode="&#xe60d;" d="M511.997 940.8c-271.722 0-492.8-221.078-492.8-492.803 0-271.715 221.078-492.797 492.8-492.797s492.807 221.082 492.807 492.797c0 271.725-221.065 492.803-492.807 492.803zM511.997 30.153c-230.4 0-417.85 187.436-417.85 417.843 0 230.4 187.45 417.853 417.85 417.853 230.403 0 417.853-187.453 417.853-417.853 0-230.407-187.45-417.843-417.853-417.843zM527.34 268.547h55.197v51.514h31.771v45.155h-31.771v50.173h-55.197v-50.173h-49.5l69.571 137.469h-57.194l-73.919-142.817v-39.806h111.043zM377.699 627.78c14.585 0 26.412 9.738 26.412 21.75v64.983c0 12.012-11.827 21.75-26.412 21.75s-26.412-9.738-26.412-21.75v-64.983c0-12.015 11.827-21.75 26.412-21.75zM647.523 627.78c14.589 0 26.412 9.738 26.412 21.75v64.983c0 12.012-11.827 21.75-26.412 21.75-14.589 0-26.412-9.738-26.412-21.75v-64.983c0-12.015 11.824-21.75 26.412-21.75zM730.266 683.967h-30.573v-40.888c0-23.729-23.357-42.964-52.169-42.964s-52.169 19.234-52.169 42.964v40.888h-165.478v-40.888c0-23.729-23.361-42.964-52.173-42.964-28.809 0-52.166 19.234-52.166 42.964v40.888h-31.802c-24.218 0-43.848-19.63-43.848-43.848v-436.538c0-24.221 19.63-43.848 43.848-43.848h436.538c24.221 0 43.851 19.627 43.851 43.848v436.538c-0.007 24.218-19.637 43.848-43.858 43.848zM733.44 210.029c0-6.103-5.67-11.575-11.766-11.575h-417.318c-6.1 0-11.779 5.472-11.779 11.575v346.501h440.863v-346.501z" />
<glyph unicode="&#xe60e;" d="M439.968 336.323c-47.486 0-85.982-38.489-85.982-85.982 0-47.486 38.496-85.978 85.982-85.978s85.982 38.492 85.982 85.978c0 47.493-38.496 85.982-85.982 85.982zM439.968 207.35c-23.747 0-42.991 19.244-42.991 42.991s19.248 42.994 42.991 42.994c23.747 0 42.991-19.248 42.991-42.994s-19.244-42.991-42.991-42.991zM984.166 295.595h-99.956c0 7.895 0 16.613 0 25.682v281.702c0 39.509-26.747 126.952-433.493 126.952-406.75 0-433.49-87.443-433.49-126.952v-281.702c0-39.509 31.795-71.54 71.014-71.54h242.852c-0.007 0.205-0.034 0.403-0.034 0.604 0 60.054 48.855 108.913 108.909 108.913s108.913-48.858 108.913-108.913c0-0.201-0.034-0.399-0.034-0.604h435.319c12.66 0 22.927 10.267 22.927 22.927 0 12.663-10.267 22.931-22.927 22.931zM439.968 501.603c0-6.335-5.134-11.462-11.462-11.462h-300.94c-6.332 0-11.465 5.127-11.465 11.462v99.355c0 6.328 5.134 11.462 11.465 11.462h300.94c6.328 0 11.462-5.134 11.462-11.462v-99.355zM762.883 501.603c0-6.335-5.127-11.462-11.462-11.462h-137.574c-6.332 0-11.459 5.127-11.459 11.462v99.355c0 6.328 5.127 11.462 11.459 11.462h137.574c6.335 0 11.462-5.134 11.462-11.462v-99.355z" />
<glyph unicode="&#xe60f;" d="M775.574 492.981l-448.396 448.389c-12.015 12.015-27.989 18.63-44.981 18.63-16.988 0-32.959-6.615-44.981-18.63-12.015-12.018-18.63-27.993-18.63-44.977 0-16.995 6.615-32.969 18.63-44.984l403.422-403.408-403.422-403.412c-12.015-12.018-18.63-27.989-18.63-44.988 0-16.995 6.615-32.963 18.63-44.977 12.018-12.015 27.993-18.627 44.977-18.627h0.003c16.992 0 32.963 6.615 44.984 18.627l448.393 448.396c24.794 24.808 24.794 65.154 0 89.962z" />
<glyph unicode="&#xe610;" d="M680.441 942.933h-339.739c-23.269 0-40.329-21.832-40.329-45.1v-336.712c0-23.272 17.060-38.025 40.329-38.025h51.831v-482.12c0-6.963 3.505-13.64 8.421-18.575l61.607-61.512c5.065-5.093 12.012-7.755 18.862-7.755 4.106 0 8.339 0.956 12.162 2.929l119.221 61.512c7.386 3.82 12.564 10.882 13.92 19.087 1.365 8.199-1.212 16.565-6.96 22.559l-41.967 43.715 39.984 33.826c5.482 4.635 8.83 11.312 9.277 18.487 0.44 7.161-2.062 14.193-6.932 19.473l-46.046 49.886 44.080 45.312c4.939 4.932 6.479 11.633 6.479 18.62v234.554h55.801c23.272 0 39.772 14.752 39.772 38.025v336.715c0 23.269-16.5 45.1-39.772 45.1zM573.44 299.441l-54.992-55.487c-9.998-9.994-10.069-26.098-0.481-36.482l44.681-48.271-40.332-34.191c-5.547-4.69-8.881-11.479-9.254-18.743-0.375-7.253 2.28-14.346 7.322-19.593l36.956-38.475-70.461-36.482-39.731 40.127v471.248h126.293v-223.652zM648.841 837.12h-276.535c-12.367 0-22.388 8.113-22.388 20.48s10.022 20.48 22.388 20.48h276.535c12.367 0 22.388-8.113 22.388-20.48s-10.022-20.48-22.388-20.48z" />
<glyph unicode="&#xe611;" d="M887.412 663.514c4.492 16.51 7.093 33.785 7.093 51.702 0 109.169-88.815 197.98-197.987 197.98-84.040 0-155.839-52.736-184.515-126.768-28.682 74.035-100.471 126.768-184.515 126.768-109.172 0-197.994-88.812-197.99-197.98 0-17.9 2.598-35.191 7.079-51.702-66.922-6.229-119.511-62.638-119.511-131.164v-283.023c0-33.010 26.839-59.846 59.832-59.846h124.413v-149.398c0-33.024 26.842-59.856 59.839-59.856h501.115c32.986 0 59.819 26.873 59.819 59.856v149.398h125.007c33.014 0 59.839 26.856 59.839 59.846v283.023c0.003 68.526-52.569 124.931-119.518 131.164zM696.477 829.932c63.229 0 114.715-51.453 114.715-114.702 0-18.371-4.434-35.669-12.148-51.081-18.845-37.635-57.685-63.601-102.56-63.601-3.867 0-7.612 0.43-11.387 0.809-22.060 39.96-57.559 71.421-100.359 88.477-1.884 8.182-2.946 16.654-2.959 25.395 0 63.252 51.456 114.702 114.698 114.702zM511.717 620.711c54.46 0 100.062-38.175 111.722-89.126 1.908-8.243 2.973-16.787 2.973-25.586 0-18.364-4.42-35.666-12.134-51.081-12.452-24.897-33.785-44.503-59.727-55.040-13.251-5.414-27.641-8.588-42.827-8.588-14.991 0-29.194 3.123-42.325 8.376-26.173 10.489-47.691 30.164-60.228 55.265-7.707 15.408-12.155 32.72-12.155 51.081 0 8.721 1.065 17.179 2.922 25.358 11.575 51.070 57.245 89.341 111.78 89.341zM327.458 829.935c63.242 0 114.691-51.453 114.691-114.702 0-8.673-1.065-17.084-2.912-25.194-43.039-17.009-78.78-48.568-100.956-88.733-3.577-0.348-7.148-0.778-10.827-0.761-44.889 0-83.709 25.965-102.554 63.607-7.707 15.408-12.155 32.71-12.155 51.081 0 63.252 51.463 114.702 114.712 114.702zM201.301 323.11v-50.371h-100.97v259.594c0 26.73 21.753 48.503 48.507 48.503h33.649c33.376-36 79.882-59.44 131.864-62.908-0.259-3.99-0.621-7.926-0.621-11.967 0-17.896 2.608-35.185 7.083-51.698-66.922-6.226-119.511-62.655-119.511-131.154zM738.816 63.539h-454.229v259.57c0 26.73 21.75 48.507 48.5 48.507h33.645c6.011-6.475 12.578-12.367 19.395-18.033 23.77-19.692 52.094-34.089 83.265-40.987 13.64-2.99 27.781-4.611 42.319-4.611 14.722 0 29.041 1.686 42.841 4.762 31.198 6.953 59.498 21.453 83.275 41.25 6.625 5.523 13.018 11.308 18.879 17.62h33.594c26.747 0 48.517-21.77 48.517-48.507v-259.57zM923.624 272.777h-101.53v50.333c0 68.529-52.572 124.942-119.494 131.168 4.492 16.524 7.096 33.799 7.096 51.719 0 4.017-0.362 7.96-0.587 11.933 52.176 3.331 98.86 26.815 132.376 62.925h33.635c26.733 0 48.5-21.774 48.5-48.503v-259.574z" />
<glyph unicode="&#xe612;" d="M695.822 827.566h133.605v-140.343h-133.605v140.343zM527.695 827.566h133.588v-140.343h-133.588v140.343zM359.543 829.136h133.594v-140.346h-133.594v140.346zM191.406 829.136h133.594v-140.346h-133.594v140.346zM695.822 653.486h133.605v-140.343h-133.605v140.343zM527.695 653.486h133.588v-140.343h-133.588v140.343zM359.543 655.056h133.594v-140.346h-133.594v140.346zM191.406 655.056h133.594v-140.346h-133.594v140.346zM695.822 479.406h133.605v-140.343h-133.605v140.343zM527.695 479.406h133.588v-140.343h-133.588v140.343zM359.543 480.976h133.594v-140.346h-133.594v140.346zM191.406 480.976h133.594v-140.346h-133.594v140.346zM359.543 303.483h133.594v-140.346h-133.594v140.346zM191.406 303.483h133.594v-140.346h-133.594v140.346zM952.337 34.987h-30.389c0.068 0-0.348 1.113-0.348 2.256v843.551c0 32.959-23.706 58.726-53.47 58.726h-710.68c-29.761 0-55.050-25.767-55.050-58.726v-843.551c0-1.143 1.174-2.256 1.229-2.256h-31.246c-13.107 0-24.6-12.861-24.6-27.334v-32.372c0-14.466 11.493-25.627 24.6-25.627h879.951c13.107 0 23.876 11.162 23.876 25.627v32.372c0.003 14.473-10.762 27.334-23.873 27.334zM682.68 41.656c0-4.311-4.168-7.799-8.533-7.799-4.359 0-8.533 3.488-8.533 7.799v228.611c0 4.301 4.175 7.793 8.533 7.793 4.366 0 8.533-3.492 8.533-7.793v-228.611zM870.4 37.243c0-1.457-0.761-2.256-1.161-2.256h-73.919v233.981c0 17.019-8.66 28.846-23.395 28.846h-197.4c-14.732 0-24.972-11.827-24.972-28.846v-233.981h-393.206c-0.406 0-2.748 0.792-2.748 2.256v843.551c0 3.164 2.57 4.816 2.854 4.973l711.223 0.031c0.447-0.188 2.724-1.84 2.724-5.004v-843.551z" />
<glyph unicode="&#xe613;" d="M183.156 639.095c53.395 0.601 105.076-18.855 144.824-54.521l167.567-150.371c-13.466-49.599 17.353-99.13 66.198-110.077 47.831-10.721 95.314 19.374 106.032 67.202 10.714 47.841-19.371 95.314-67.212 106.032-18.767 4.209-37.461 2.106-53.92-4.847l-167.117 149.968c-39.574 35.509-64.58 84.62-69.809 138.090l-159.898 143.49 4.267-134.195-131.052-7.079 160.119-143.691zM341.606 487.636c-47.309-141.961 38.496-293.021 183.801-325.588 135.721-30.42 270.408 54.934 300.834 190.665 30.42 135.721-54.955 270.421-190.665 300.838-54.702 12.264-109.24 5.697-156.846-15.377l69.461-62.341c22.422 4.338 46.060 4.27 69.734-1.034 92.092-20.637 150.214-112.353 129.567-204.442-20.634-92.088-112.346-150.214-204.435-129.574-85.661 19.2-141.899 99.898-132.727 185.18l-68.724 61.672zM671.379 813.329c-104.861 23.501-209.343 5.113-295.97-44.070 5.775-26.819 18.753-51.47 37.656-71.448 72.994 42.237 157.901 55.323 240.667 36.772 87.286-19.565 161.737-71.95 209.62-147.514 47.886-75.564 63.495-165.243 43.926-252.522-19.558-87.286-71.946-161.741-147.511-209.633-75.558-47.879-165.236-63.488-252.532-43.913-87.286 19.555-161.731 71.939-209.616 147.5-61.955 97.748-67.908 216.364-22.197 317.689-21.415 15.978-47.155 26.395-75.322 29.133-105.653-240.568 35.055-516.041 289.495-573.065 223.959-50.2 446.225 90.665 496.428 314.644 50.2 223.956-90.668 446.222-314.644 496.425z" />
<glyph unicode="&#xe614;" d="M843.353 936.107h-661.992c-43.288 0-78.961-34.761-78.961-78.049v-901.577h819.2v901.577c0 43.288-34.956 78.049-78.247 78.049zM860.16 17.92h-696.32v706.56h696.32v-706.56zM473.788 116.419h78.937v-37.803h-78.937v37.803zM222.109 223.031h582.301v-37.803h-582.301v37.803zM222.109 329.636h582.301v-37.806h-582.301v37.806zM222.109 436.248h582.301v-37.806h-582.301v37.806zM222.109 542.853h582.301v-37.806h-582.301v37.806zM222.109 649.458h582.301v-37.806h-582.301v37.806z" />
<glyph unicode="&#xe615;" d="M512 960c-282.771 0-512-229.229-512-512s229.229-512 512-512 512 229.229 512 512-229.229 512-512 512zM512 21.333c-235.646 0-426.667 191.020-426.667 426.667s191.020 426.667 426.667 426.667 426.667-191.020 426.667-426.667-191.020-426.667-426.667-426.667zM256 192l316.334 195.645 195.666 316.355-316.334-195.666-195.666-316.334zM481.833 478.167c16.667 16.667 43.667 16.667 60.334 0 16.657-16.667 16.657-43.667 0-60.355-16.667-16.667-43.667-16.667-60.334 0-16.657 16.688-16.657 43.687 0 60.355z" />
<glyph unicode="&#xe616;" d="M371.033 704v-474.887h652.967v474.887h-652.967zM964.639 288.474h-534.245v296.806l267.127-178.084 267.121 178.084v-296.806zM697.521 466.558l-267.127 178.084h534.248l-267.121-178.084zM311.631 614.96c0 16.384-13.305 29.679-29.682 29.679h-252.266c-16.408 0-29.682-13.295-29.682-29.679 0-16.401 13.274-29.682 29.682-29.682h252.266c16.377 0 29.682 13.281 29.682 29.682zM281.962 347.832h-44.503c-16.408 0-29.682-13.298-29.682-29.679 0-16.401 13.274-29.672 29.682-29.672h44.506c16.36 0 29.679 13.274 29.679 29.672-0.014 16.381-13.319 29.679-29.682 29.679zM311.641 466.558c-0.010 16.381-13.315 29.682-29.679 29.682h-163.226c-16.408 0-29.682-13.298-29.682-29.682 0-16.408 13.274-29.679 29.682-29.679h163.226c16.36 0 29.679 13.274 29.679 29.679z" />
<glyph unicode="&#xe617;" d="M511.147 942.080c-273.347 0-494.933-221.587-494.933-494.933 0-273.34 221.587-494.933 494.933-494.933s494.933 221.594 494.933 494.933c0 273.347-221.587 494.933-494.933 494.933zM793.19 535.115l-324.495-324.495c-12.964-12.964-32.963-14.578-47.688-4.867-2.096 1.393-4.106 3.007-5.949 4.861l-201.127 201.127c-14.821 14.821-14.814 38.833-0.007 53.644l58.999 58.996c14.807 14.81 38.827 14.807 53.637 0.007l115.313-115.319 238.688 238.684c14.814 14.81 38.83 14.81 53.647 0l58.993-58.996c14.814-14.814 14.807-38.823-0.010-53.641z" />
<glyph unicode="&#xe618;" d="M777.957 828.679c0-51.021-41.361-92.382-92.382-92.382s-92.382 41.361-92.382 92.382c0 51.021 41.361 92.382 92.382 92.382s92.382-41.361 92.382-92.382zM980.343 767.693c-26.675 16.978-62.153 9.107-79.148-17.616-76.752-120.767-136.513-99.714-264.311-40.646-114.777 53.050-271.988 125.716-418.062-57.361-19.75-24.76-15.695-60.836 9.059-80.582 24.76-19.763 60.849-15.708 80.582 9.059 63.495 79.582 117.92 86.63 192.379 61.614l-108.442-207.439-5.673-10.407c-25.914-47.793-69.304-127.768-132.215-140.479-39.731-8.001-88.211 10.66-144.282 55.518-24.726 19.78-60.798 15.766-80.589-8.943-19.784-24.74-15.78-60.819 8.953-80.599 68.567-54.859 134.769-82.493 197.376-82.493 13.937 0 27.703 1.372 41.264 4.113 79.712 16.121 133.782 75.332 170.544 130.567l16.783-8.772c120.805-63.048 200.608-104.714 257.089-278.641 7.871-24.231 30.345-39.636 54.531-39.636 5.871 0 11.841 0.908 17.715 2.802 30.126 9.786 46.616 42.138 36.833 72.247-63.396 195.219-164.055 265.032-273.603 324.041l104.4 199.755c38.468-14.688 79.462-25.972 121.3-25.958 72.281 0 147.016 33.543 215.153 140.718 16.988 26.716 9.1 62.147-17.637 79.138z" />
<glyph unicode="&#xe619;" d="M35.27 139.919h145.251v-38.001h-145.251v38.001zM35.27-9.595c0-14.387 11.667-26.054 26.054-26.054h93.146c14.384 0 26.051 11.667 26.051 26.054v92.993h-145.251v-92.993zM121.334 927.973c-5.891 13.281-16.271 13.097-22.709 0.85l-34.12-64.573h86.777l-29.949 63.724zM64.365 745.547h25.846v-584.137h36.567v584.137h25.846v-584.137h27.887v616.936h-12.971l-20.804-15.947c-6.062-4.669-15.824-4.741-21.371 0.328l-18.097 15.599-20.774-15.923c-6.059-4.669-15.831-4.738-21.374 0.328l-18.125 15.63h-11.728v-616.933h29.099v584.12zM968.499 409.279h-60.153v415.543l20.917 23.501-22.176 89.644h-44.349l-22.173-89.644 20.924-23.511v-415.539h-60.153c-7.745 0-14.008-5.854-14.008-13.066v-37.188c0-7.212 6.277-13.066 14.008-13.066h10.96v-368.548c0-7.212 6.946-13.059 15.507-13.059h114.053c8.574 0 15.514 5.847 15.514 13.059v28.634h0.184v339.913h10.96c7.752 0 14.015 5.854 14.015 13.066v37.192c0.007 7.216-6.281 13.070-14.029 13.070zM867.226 20.705h-25.832v325.246h25.832v-325.246zM926.246 20.705h-25.856v325.246h25.856v-325.246zM693.18 47.578v0.007h-0.007zM364.377 651.609l-0.003 45.725c-31.973 8.127-58.795 13.073-58.795 13.073s4.946-26.825 13.073-58.798h45.725zM325.564 626.173c3.045-10.458 6.362-20.855 9.895-30.553l84.907-0.003v84.907c-9.694 3.536-20.094 6.854-30.549 9.899v-64.154h-0.099l0.003-0.096h-64.157zM639.218 609.608l45.667-2.328c9.748 31.512 16.053 58.054 16.053 58.054s-27.047-3.57-59.382-10.063l-2.338-45.664zM545.232 126.044c-18.101 23.299-30.399 26.163-52.483 17.306-1.519 1.942 0 0-1.635 2.266-5.973 8.349-12.708 18.968-18.166 31.823-5.41 12.759-9.523 28.167-8.035 44.179 1.379 16.555 8.486 38.618 18.64 57.627 10.196 18.985 21.030 39.994 28.215 63.396 7.328 23.296 10.882 48.705 10.161 74.124-0.666 21.808-3.618 43.967-9.998 65.266 7.192 10.233 16.527 20.668 27.703 27.58 28.088-25.521 71.503-26.064 100.267-0.092 4.468 4.031 8.922 10.237 13.288 17.835l-99.338 5.065 0.010 0.099-0.099 0.003 5.065 99.335c-8.004-3.567-14.626-7.373-19.094-11.404-28.003-25.283-32.406-66.932-11.841-97.3-10.749-5.984-18.374-13.817-23.538-20.927-9.032 18.62-24.163 37.67-35.956 53.937 24.989 29.365 23.634 73.469-4.103 101.209-4.256 4.256-10.68 8.39-18.49 12.36v-99.465h-0.099v-0.096h-99.465c3.966-7.813 8.107-14.234 12.363-18.49 25.617-25.62 65.208-28.744 94.239-9.383 11.291-18.374 21.18-37.68 27.665-58.122 7.41-23.078 10.179-47.469 10.124-71.363-0.116-23.859-4.188-47.008-11.643-68.246-7.339-21.327-18.016-40.567-28.785-59.075-5.362-9.312-11.428-24.388-15.107-34.372-1.877-4.939-3.478-10.042-4.915-15.121-0.625-2.649-1.331-5.031-1.83-7.868l-0.775-4.12-0.488-3.519c-2.69-21.538 2.079-40.608 7.926-55.965 5.973-15.452 13.237-27.689 19.651-37.345 0.201-0.304-158.116-79.599-158.116-79.599l396.616 0.007c-0.16 0.075-104.346 22.33-147.934 78.455zM676.693 582.219l-64.072 3.27 0.007 0.102h-0.092l3.27 64.075c-10.595-2.505-21.156-5.294-31.017-8.325l-4.335-84.801 84.801-4.325c4.021 9.499 7.868 19.715 11.438 30.003z" />
<glyph unicode="&#xe61a;" d="M768 960h-512c-141.373 0-256-114.627-256-256v-512c0-141.373 114.627-256 256-256h512c141.373 0 256 114.627 256 256v512c0 141.373-114.627 256-256 256zM768 405.333h-512v85.333h512v-85.333z" />
<glyph unicode="&#xe61b;" d="M768 960h-512c-141.373 0-256-114.627-256-256v-512c0-141.373 114.627-256 256-256h512c141.373 0 256 114.627 256 256v512c0 141.373-114.627 256-256 256zM768 405.333h-213.333v-213.333h-85.333v213.333h-213.333v85.333h213.333v213.333h85.333v-213.333h213.333v-85.333z" />
<glyph unicode="&#xe61c;" d="M811.732 941.766h-600.538c-107.336 0-194.662-87.327-194.662-194.662v-600.535c0-107.336 87.327-194.666 194.662-194.666h600.538c107.339 0 194.662 87.33 194.662 194.666v600.535c0.007 107.336-87.316 194.662-194.662 194.662zM916.132 146.565c0-57.562-46.828-104.407-104.4-104.407h-600.538c-57.573 0-104.41 46.845-104.41 104.407v600.538c0 57.569 46.838 104.407 104.41 104.407h600.538c57.573 0 104.4-46.838 104.4-104.407v-600.538zM424.407 533.477l-118.753-118.764 177.097-177.087 119.177 119.177 152.511-151.784v483.628h-485.96z" />
<glyph unicode="&#xe61d;" d="M744.397 740.11l-51.302 54.272-2.819-74.626c-0.908-23.794-2.58-42.929-4.775-58.31-63.263 154.136-128.246 193.959-196.519 235.814-6.885 4.219-13.868 8.503-20.954 12.967l-50.463 31.799 2.403-59.593c5.151-127.881-42.011-228.823-96-307.773-10.032 33.98-27.44 60.948-52.47 81.531l-51.285 42.168v-66.396c0-43.646-20.016-81.876-43.196-126.136-28.273-53.985-60.317-115.166-59.624-197.96 1.249-148.722 129.184-232.496 205.626-282.552l110.459-73.155-50.924 103.871c-43.639 89.027-25.030 116.405 8.759 166.11 16.189 23.825 34.809 51.22 48.654 88.61 13.053-25.911 26.173-54.897 35.587-82.244l16.534-47.988 35.512 36.25c45.111 46.039 63.007 129.836 63.56 203.783 111.667-137.076 72.755-247.067 40.673-337.797-3.796-10.742-7.421-21.023-10.619-30.822l-28.020-85.968 75.233 50.152c117.61 78.408 238.193 182.921 240.879 363.633 2.707 183.060-119.064 311.873-164.908 360.363zM712.113 126.433c29.549 105.213 36.557 244.774-140.677 404.961l-78.356 70.813 27.006-102.1c12.612-47.674 12.073-132.168-9.458-191.625-20.538 44.667-43.96 85.586-56.685 105.786l-49.009 77.844-8.752-91.566c-6.632-69.414-32.109-106.899-56.747-143.142-26.351-38.786-51.681-76.039-43.65-137.062-58.016 44.018-114.971 103.813-115.674 188.058-0.563 67.069 26.395 118.545 52.466 168.329 12.032 22.968 24.262 46.326 33.659 71.049 3.297-14.37 5.325-31.901 5.325-53.453v-88.699l55.753 68.987c68.079 84.234 144.384 198.438 154.614 353.137 62.164-40.042 114.292-88.255 171.25-260.028l13.633-41.12 34.802 25.788c25.392 18.818 38.072 51.876 44.64 90.528 54.153-67.703 101.932-153.863 100.325-262.233-1.662-112.903-61.215-192.386-134.465-254.252z" />
<glyph unicode="&#xe61e;" d="M823.248 448l-511.993-512v1024l511.993-512z" />
<glyph unicode="&#xe61f;" d="M884.985 445.658l-482.98 482.98v-264.015h-266.383v-437.937h266.383v-264.015z" />
<glyph unicode="&#xe620;" d="M87.678 448l511.993 512v-1024l-511.993 512z" />
<glyph unicode="&#xe621;" d="M750.957 151.337v169.233h0.024v456.892l-150.811 162.055h-374.535c-46.671 0-84.606-37.932-84.606-84.606v-703.573c0-46.647 37.932-84.627 84.606-84.627h440.692c46.647 0 84.63 37.956 84.63 84.627zM204.493 151.337v703.549c0 11.67 9.472 21.139 21.142 21.139h346.921l3.628-3.901v-119.375h111.087l0.236-0.236v-424.465h-0.024v-176.712h0.003c0-11.639-9.492-21.163-21.163-21.163h-440.689c-11.67 0-21.142 9.472-21.142 21.163zM779.305 775.991v-140.295h43.872l0.229-0.236v-424.465h-0.020v-176.712c0-11.639-9.492-21.166-21.166-21.166h-440.699c-11.674 0-21.142 9.475-21.142 21.166v4.403h-63.471v-4.403c0-46.647 37.932-84.627 84.613-84.627h440.699c46.653 0 84.634 37.956 84.634 84.627v169.233h0.024v456.888l-107.571 115.586zM580.13 313.31h-292.734c-10.001 0-18.108-8.11-18.108-18.111v-36.212c0-10.001 8.107-18.108 18.108-18.108h292.734c9.998 0 18.111 8.107 18.111 18.108v36.212c0 10.001-8.113 18.111-18.111 18.111zM287.396 367.63h232.369c10.001 0 18.111 8.107 18.111 18.108h0.003v36.215c0 10.001-8.11 18.108-18.115 18.108h-232.369c-10.001 0-18.108-8.107-18.108-18.108v-36.215c0-10.001 8.107-18.108 18.108-18.108zM580.13 566.811h-292.734c-10.001 0-18.108-8.11-18.108-18.108v-36.215c0-10.001 8.107-18.108 18.108-18.108h292.734c9.998 0 18.111 8.107 18.111 18.108v36.215c0 10.001-8.113 18.108-18.111 18.108z" />
<glyph unicode="&#xe622;" d="M511.997 940.8c-271.722 0-492.8-221.078-492.8-492.803 0-271.715 221.078-492.797 492.8-492.797s492.807 221.082 492.807 492.797c0 271.725-221.065 492.803-492.807 492.803zM511.997 30.153c-230.4 0-417.85 187.436-417.85 417.843 0 230.4 187.45 417.853 417.85 417.853 230.403 0 417.853-187.453 417.853-417.853 0-230.407-187.45-417.843-417.853-417.843zM644.772 283.692v94.819h0.048v255.993l-84.514 90.795h-209.848c-26.163 0-47.415-21.241-47.415-47.401v-394.206c0-26.143 21.255-47.432 47.415-47.432h246.927c26.132 0.007 47.387 21.289 47.387 47.432zM338.613 283.692v394.196c0 6.55 5.304 11.844 11.855 11.844h194.383l2.031-2.191v-66.884h62.232l0.126-0.14v-336.824c0-6.526-5.315-11.855-11.855-11.855h-246.927c-6.543 0.003-11.844 5.294-11.844 11.855zM549.093 374.426h-164.028c-5.608 0-10.151-4.536-10.151-10.134v-20.299c0-5.608 4.543-10.148 10.151-10.148h164.028c5.594 0 10.134 4.54 10.134 10.148v20.299c0 5.598-4.54 10.134-10.134 10.134zM385.065 404.876h130.205c5.612 0 10.151 4.536 10.151 10.161v20.289c0 5.608-4.54 10.161-10.151 10.161h-130.205c-5.608 0-10.151-4.553-10.151-10.161v-20.289c0.003-5.625 4.56-10.161 10.151-10.161zM549.093 516.471h-164.028c-5.608 0-10.151-4.536-10.151-10.144v-20.299c0-5.608 4.543-10.151 10.151-10.151h164.028c5.594 0 10.134 4.543 10.134 10.151v20.299c0 5.605-4.54 10.144-10.134 10.144zM660.688 555.073h24.579l0.147-0.14v-237.821h-0.031v-99c0-6.533-5.297-11.865-11.844-11.865h-246.934c-6.54 0-11.844 5.304-11.844 11.865v2.461h-35.57v-2.461c0-26.143 21.255-47.432 47.415-47.432h246.934c26.126 0 47.415 21.286 47.415 47.432v350.799l-60.266 64.758v-78.595z" />
<glyph unicode="&#xe623;" d="M904.315 960h-341.897c-22.245 0-41.387-10.919-56.395-24.129-14.657 13.152-33.495 24.129-55.572 24.129h-334.179c-64.113 0-116.272-52.159-116.272-116.272v-640.782c0-64.116 52.159-116.272 116.272-116.279h330.735c11.79 0 25.702-13.558 30.638-20.173 7.294-10.066 18.589-16.568 31.010-16.568 0.14 0 0.287 0 0.433 0.007 12.677 0.157 24.084 5.936 31.198 16.428 0.154 0.201 15.531 20.313 35.912 20.313h328.12c64.106 0 116.265 52.159 116.265 116.272v640.782c0.003 64.113-52.156 116.272-116.268 116.272zM943.077 202.95c0-21.371-17.384-38.762-38.755-38.762h-328.12c-27.767 0-50.265-10.22-66.758-21.671-15.797 11.455-37.011 21.671-62.437 21.671h-330.735c-21.367 0-38.755 17.388-38.755 38.762v640.782c0 21.371 17.388 38.755 38.755 38.755v-0.007h332.486c5.673-2.833 16.712-15.565 22.941-26.573 6.741-12.134 19.459-19.739 33.341-19.93 0.181-0.003 0.362-0.003 0.539-0.003 13.677 0 26.358 7.212 33.341 18.999 6.007 10.134 18.654 24.627 25.040 27.511h340.361c21.371 0 38.755-17.384 38.755-38.755v-640.778zM841.103 694.33h-224.304c-21.443 0-38.823-17.381-38.823-38.823s17.381-38.823 38.823-38.823h224.304c21.443 0 38.823 17.381 38.823 38.823s-17.381 38.823-38.823 38.823zM841.103 552.847h-224.304c-21.443 0-38.823-17.381-38.823-38.823 0-21.446 17.381-38.823 38.823-38.823h224.304c21.443 0 38.823 17.381 38.823 38.823s-17.381 38.823-38.823 38.823zM789.337 411.361h-172.537c-21.443 0-38.823-17.377-38.823-38.82 0-21.439 17.381-38.82 38.823-38.82h172.537c21.443 0 38.823 17.381 38.823 38.82 0 21.443-17.381 38.82-38.823 38.82zM432.183 694.33h-224.304c-21.443 0-38.823-17.381-38.823-38.823s17.384-38.823 38.823-38.823h224.304c21.439 0 38.823 17.381 38.823 38.823s-17.384 38.823-38.823 38.823zM432.183 552.847h-224.304c-21.443 0-38.823-17.381-38.823-38.823 0-21.446 17.384-38.823 38.823-38.823h224.304c21.439 0 38.823 17.381 38.823 38.823s-17.384 38.823-38.823 38.823zM432.183 411.361h-224.304c-21.443 0-38.823-17.377-38.823-38.82 0-21.439 17.384-38.82 38.823-38.82h224.304c21.439 0 38.823 17.381 38.823 38.82 0 21.443-17.384 38.82-38.823 38.82z" />
<glyph unicode="&#xe624;" d="M682.67 490.667h-128v213.333c0 23.572-19.128 42.667-42.67 42.667s-42.667-19.094-42.667-42.667v-256c0-23.552 19.125-42.667 42.667-42.667h170.67c23.538 0 42.667 19.115 42.667 42.667-0.003 23.552-19.132 42.667-42.667 42.667zM512 960c-282.771 0-512-229.229-512-512 0-282.75 229.229-512 512-512s512 229.25 512 512-229.229 512-512 512zM512 21.333c-235.646 0-426.667 191.041-426.667 426.667 0 235.646 191.020 426.667 426.667 426.667 235.626 0 426.67-191.020 426.67-426.667 0-235.626-191.044-426.667-426.67-426.667z" />
<glyph unicode="&#xe625;" d="M542.144 907.861c-16.789 16.164-43.364 16.149-60.174-0.014l-441.038-424.142c-17.294-16.633-17.806-44.103-1.202-61.39 16.604-17.301 44.103-17.835 61.397-1.216l72.796 70.023v-415.161c0-23.993 19.435-43.42 43.42-43.42h198.222c23.993 0 43.428 19.428 43.428 43.42v217.948h106.603v-217.97c0-23.972 19.442-43.413 43.42-43.413h185.479c23.972 0 43.413 19.442 43.413 43.413v427.328l85.554-82.204c8.405-8.078 19.257-12.103 30.052-12.103 11.428 0 22.812 4.473 31.317 13.355 16.647 17.294 16.092 44.772-1.209 61.39l-441.479 424.156zM751.076 119.367h-98.624v217.97c0 23.993-19.428 43.42-43.42 43.42h-193.451c-23.986 0-43.42-19.428-43.42-43.42v-217.963h-111.381v455.26l251.307 241.692 239.012-229.611v-467.349h-0.021z" />
<glyph unicode="&#xe626;" d="M519.858 502.279c11.84-0.206 22.628-6.713 28.132-17.038 8.341-15.673 27.812-21.575 43.47-13.212 15.851 8.356 21.575 27.812 13.212 43.47-12.153 22.812-32.839 39.36-56.967 46.741l0.583 23.673c0.363 17.671-13.803 32.391-31.531 32.69-17.707 0.306-32.42-13.753-32.747-31.538l-0.604-25.685c-37.696-11.577-62.905-41.835-63.701-80.868-0.668-49.586 29.333-82.887 79.524-90.332 1.692-0.398 3.484-0.597 5.269-0.704 3.755-0.398 7.602-0.69 11.563-0.804 26.965-2.901 26.844-15.417 26.617-27.556-0.064-4.345-1.266-10.126-8.363-15.14-7.161-5.077-17.884-7.844-29.454-7.63-11.819 0.121-22.599 6.827-28.203 17.451-8.256 15.652-27.705 21.675-43.428 13.355-15.694-8.391-21.632-27.748-13.39-43.392 12.338-23.388 33.429-40.341 57.934-47.637l-0.562-18.233c-0.327-17.749 13.781-32.37 31.524-32.69 8.868-0.171 16.96 3.307 22.862 8.981 5.909 5.717 9.657 13.66 9.813 22.521l0.64 20.7c10.667 3.25 20.587 7.9 29.227 13.988 3.861 2.745 7.403 5.682 10.652 8.811 15.844 15.26 24.59 35.364 24.96 57.764 0.981 56.626-35.413 91.335-97.287 93.404-25.92 3.036-25.813 16.22-25.65 25.991 0.341 22.891 32.164 22.997 35.904 22.919zM914.532 365.852c-2.93-27.207-8.569-53.71-16.775-79.388 8.448-8.22 13.746-18.937 13.746-30.748v-18.425c0-25.799-24.476-46.791-54.521-46.791h-42.517c44.814 61.426 69.76 134.876 71.118 212.388 1.813 99.47-35.307 193.842-104.555 265.707-69.276 71.879-162.233 112.469-261.732 114.268l-6.741 0.071c-97.024 0-188.956-37.156-258.887-104.604-71.716-69.148-112.277-162.162-114.219-261.924-1.436-84.217 25.429-162.496 71.716-225.927h-45.134c-30.087 0-54.542 21.013-54.542 46.812v18.411c0 12.665 5.966 24.164 15.552 32.59-7.993 25.188-13.66 51.356-16.604 78.357-50.041-18.546-85.191-61.298-85.191-110.948v-18.411c0-66.596 63.161-120.789 140.779-120.789h116.423c0.014 0 0.014-0.021 0.014-0.021l574.514 0.021c77.611 0 140.757 54.165 140.757 120.789v18.411c-0.014 49.045-34.24 91.214-83.2 110.151zM517.76 695.104c9.806-0.171 19.513-0.86 29.113-1.991-9.6 1.131-19.314 1.806-29.113 1.991v0zM705.614 209.579c-7.026-6.763-14.379-13.113-21.98-19.072h-341.796c-66.588 52.011-108.914 133.497-107.356 224.22 1.415 74.29 31.652 143.63 85.127 195.179 52.167 50.304 120.74 78.009 193.060 78.009l4.999-0.050c153.237-2.844 275.698-129.892 272.932-283.221-1.308-74.19-31.509-143.481-84.985-195.065z" />
<glyph unicode="&#xe627;" d="M512.645 894.693v0.027c-0.143 0-0.287-0.017-0.43-0.017s-0.29 0.017-0.437 0.017v-0.027c-263.325-2.628-478.631-207.234-478.631-387.929 0-153.627 0-418.744 0-495.234 0-13.575 0-21.323 0-21.323v-14.773h460.708c6.246-0.256 12.493-0.481 18.79-0.481 6.304 0 12.551 0.222 18.79 0.481h459.841v14.773c0 0 0 7.752 0 21.323 0 76.489 0 341.606 0 495.234 0 180.695-215.293 385.3-478.631 387.929zM137.185 391.161c136.858 0 385.754 6.827 521.742 142.387 3.369 3.352 6.291 6.997 9.482 10.472 38.97-60.948 131.308-138.001 229.523-150.815-62.232-175.025-209.244-205.879-309.514-210.685-11.049 31.365-40.632 53.978-75.773 53.978-44.534 0-80.643-36.099-80.643-80.65 0-44.541 36.11-80.637 80.643-80.637 35.523 0 65.338 23.105 76.087 54.999 75.674 3.475 181.443 20.753 264.127 97.26-66.799-119.245-194.072-200.212-340.214-200.212-206.302 0-375.62 160.983-389.158 363.936 4.523-0.017 8.892-0.034 13.698-0.034z" />
<glyph unicode="&#xe628;" d="M879.135 132.925h-142.711c-18.367 0-33.26-14.889-33.26-33.26 0-18.374 14.892-33.26 33.26-33.26h142.711c18.367 0 33.256 14.886 33.256 33.26 0 18.371-14.896 33.26-33.256 33.26zM938.172 442.033v80.633c0 33.522-31.802 60.795-70.902 60.795h-72.871v-47.667h72.871c14.182 0 23.245-7.776 23.245-13.128v-162.154c0-5.352-9.059-13.128-23.245-13.128h-711.318c-14.186 0-23.238 7.769-23.238 13.128v162.154c0 5.352 9.052 13.128 23.238 13.128h72.871v47.667h-72.871c-39.096 0-70.905-27.273-70.905-60.795v-80.633c-38.178-2.871-68.369-34.826-68.369-73.735v-317.72c0-40.786 33.181-73.967 73.967-73.967h841.933c40.786 0 73.97 33.181 73.97 73.967v317.72c-0.003 38.909-30.191 70.864-68.376 73.735zM952.75 50.579c0-11.127-9.049-20.173-20.173-20.173h-841.933c-11.124 0-20.173 9.045-20.173 20.173v317.72c0 9.178 6.171 16.934 14.575 19.371v-27.156c0-33.522 31.809-60.795 70.905-60.795h711.318c39.1 0 70.902 27.266 70.902 60.795v27.156c8.407-2.437 14.578-10.185 14.578-19.371v-317.72zM289.935 863.468h443.348l-1.775-494.64h46.087v542.307h-531.965v-542.307h44.305zM336.247 791.105h350.727v-30.235h-350.727v30.235zM336.247 725.798h350.727v-30.235h-350.727v30.235zM336.247 660.49h350.727v-30.235h-350.727v30.235zM336.247 595.183h350.727v-30.235h-350.727v30.235zM336.247 529.876h350.727v-30.235h-350.727v30.235zM336.247 464.568h350.727v-30.235h-350.727v30.235z" />
<glyph unicode="&#xe629;" d="M777.448 601.115c6.226 22.729 9.615 46.616 9.615 71.294 0 148.934-121.163 270.1-270.094 270.1-148.934 0-270.097-121.167-270.097-270.1 0-5.936 0.259-11.807 0.642-17.647-0.894 0.031-1.789 0.072-2.679 0.099 1.239-18.429 4.41-36.345 9.097-53.634-91.566-8.52-163.516-85.726-163.516-179.449v-68.922l0.017-113.92v-204.407c0-45.179 36.727-81.893 81.872-81.893h685.636c45.138 0 81.848 36.765 81.848 81.893v204.407l0.010 113.975v68.867c-0.010 93.375-71.345 170.281-162.352 179.337zM516.97 825.078c84.18 0 152.665-68.485 152.665-152.665s-68.478-152.668-152.665-152.668c-84.18 0-152.665 68.485-152.665 152.668s68.485 152.665 152.665 152.665zM825.839 352.922v-286.287h-621.476v355.147c0 36.581 29.757 66.376 66.355 66.376h46.036c8.223-8.864 17.21-16.92 26.535-24.672 32.529-26.945 71.281-46.647 113.92-56.084 18.664-4.086 38.011-6.304 57.904-6.304 20.139 0 39.731 2.304 58.614 6.506 21.866 4.878 42.673 12.493 62.164 22.378 29.546 14.554 56.040 34.352 78.302 58.17h45.278c36.591 0 66.369-29.792 66.369-66.372v-68.857z" />
<glyph unicode="&#xe62a;" d="M512 941.015c-272.282 0-493.015-220.733-493.015-493.015 0-272.261 220.733-493.015 493.015-493.015 272.285 0 493.015 220.754 493.015 493.015 0 272.282-220.73 493.015-493.015 493.015zM574.563 157.15h-125.935v405.187h125.935v-405.187zM510.775 612.062c-39.779 0-66.294 28.167-65.464 62.969-0.833 36.461 25.685 63.819 66.294 63.819 40.591 0 66.26-27.358 67.092-63.819 0.003-34.802-26.505-62.969-67.922-62.969z" />
<glyph unicode="&#xe62b;" d="M798.973 850.425h-694.955c-35.56 0-64.485-28.928-64.485-64.481v-57.426l31.058-50.272-31.058-50.272v-595.282c0-35.557 28.928-64.488 64.485-64.488h694.955c35.553 0 64.485 28.928 64.485 64.485v753.254c0 35.553-28.931 64.481-64.485 64.481zM816.561 32.689c0-9.697-7.888-17.589-17.582-17.589h-694.961c-9.694 0-17.585 7.888-17.585 17.589v581.967l39.287 63.587-39.284 63.59v44.111c0 9.697 7.888 17.585 17.585 17.585h694.955c9.694 0 17.582-7.888 17.582-17.585v-753.254zM130.686 559.394h651.561v-46.896h-651.561v46.896zM494.261 480.29h287.986v-46.896h-287.986v46.896zM494.261 401.186h287.986v-46.896h-287.986v46.896zM494.261 322.079h287.986v-46.899h-287.986v46.899zM494.261 242.982h287.986v-46.899h-287.986v46.899zM494.261 163.874h287.986v-46.892h-287.986v46.892zM130.686 84.767h651.561v-46.892h-651.561v46.892zM173.957 768.010h36.99v-174.425h-36.99v174.425zM287.894 675.673c0 9.94-0.758 26.556-2.266 49.865h1.072l75.878-131.953h47.008v174.425h-33.283v-82.555c0-9.387 0.591-25.412 1.785-48.080h-0.836l-75.756 130.635h-46.65v-174.421h33.048v82.084zM489.878 662.548h59.174v30.188h-59.174v44.974h63.594v30.3h-99.98v-174.425h36.386zM662.873 591.203c26.72 0 47.241 7.755 61.553 23.265 14.319 15.507 21.473 37.7 21.473 66.57 0 28.945-7.086 51.139-21.289 66.57s-34.703 23.146-61.505 23.146c-26.808 0-47.387-7.66-61.74-22.968-14.36-15.309-21.538-37.478-21.538-66.509 0-29.034 7.165-51.302 21.473-66.809 14.319-15.514 34.847-23.265 61.573-23.265zM629.828 725.122c7.472 9.905 18.572 14.855 33.287 14.855 29.351 0 44.018-19.644 44.018-58.935 0-39.216-14.752-58.819-44.261-58.819-14.725 0-25.774 4.929-33.167 14.79-7.4 9.861-11.093 24.538-11.093 44.025 0 19.483 3.734 34.181 11.216 44.083zM131.492 480.29v-363.308h293.373v363.308h-293.373zM377.972 160.713h-199.584v275.838h199.584v-275.838zM884.756 921.911h-694.955c-33.365 0-60.894-25.477-64.157-57.999h47.845c2.587 6.489 8.909 11.1 16.312 11.1h694.955c9.697 0 17.582-7.888 17.582-17.585v-753.261c0-9.701-7.892-17.582-17.582-17.582h-3.253v-46.899h3.253c35.553 0 64.485 28.931 64.485 64.485v753.261c0 35.56-28.931 64.481-64.485 64.481z" />
<glyph unicode="&#xe62c;" d="M154.074 461.728l22.685 5.642c8.209 2.041 13.21 10.356 11.168 18.569l-5.642 22.688c-2.041 8.212-10.356 13.213-18.569 11.168l-22.685-5.646c-8.212-2.041-13.213-10.356-11.168-18.569l5.642-22.685c2.041-8.209 10.356-13.213 18.569-11.168zM249.003 525.227c-2.045 8.209-10.356 13.213-18.569 11.168l-22.685-5.642c-8.209-2.041-13.213-10.356-11.168-18.569l5.646-22.685c2.041-8.212 10.356-13.213 18.569-11.168l22.685 5.642c8.212 2.045 13.213 10.356 11.168 18.569l-5.646 22.685zM315.727 541.829c-2.041 8.212-10.353 13.213-18.569 11.168l-22.682-5.642c-8.216-2.045-13.216-10.356-11.172-18.569l5.642-22.685c2.041-8.212 10.356-13.216 18.569-11.172l22.685 5.642c8.216 2.041 13.213 10.356 11.172 18.569l-5.646 22.688zM382.447 558.428c-2.041 8.212-10.356 13.213-18.569 11.168l-22.685-5.642c-8.212-2.041-13.213-10.356-11.168-18.569l5.646-22.685c2.041-8.212 10.356-13.213 18.569-11.168l22.685 5.642c8.212 2.041 13.213 10.356 11.168 18.569l-5.646 22.685zM449.174 575.027c-2.041 8.212-10.356 13.216-18.572 11.168l-22.685-5.642c-8.212-2.041-13.213-10.356-11.168-18.569l5.646-22.685c2.041-8.209 10.353-13.213 18.569-11.168l22.685 5.642c8.216 2.045 13.216 10.359 11.172 18.572l-5.646 22.682zM515.888 591.626c-2.041 8.216-10.353 13.216-18.562 11.172l-22.685-5.642c-8.209-2.041-13.213-10.356-11.168-18.569l5.642-22.685c2.045-8.212 10.359-13.213 18.569-11.172l22.688 5.646c8.216 2.041 13.216 10.353 11.165 18.569l-5.649 22.682zM582.618 608.232c-2.041 8.212-10.353 13.213-18.572 11.168l-22.682-5.646c-8.212-2.041-13.22-10.356-11.172-18.569l5.639-22.685c2.045-8.209 10.359-13.213 18.575-11.168l22.685 5.642c8.212 2.048 13.213 10.359 11.168 18.572l-5.642 22.685zM621.135 577.932l22.682 5.646c8.212 2.041 13.22 10.356 11.172 18.569l-5.639 22.685c-2.041 8.212-10.356 13.213-18.572 11.168l-22.685-5.642c-8.212-2.048-13.213-10.359-11.165-18.572l5.639-22.685c2.034-8.212 10.353-13.213 18.569-11.168zM151.6 408.207c2.041-8.206 10.356-13.213 18.569-11.165l55.808 13.885c8.212 2.041 13.213 10.353 11.172 18.562l-5.646 22.685c-2.041 8.212-10.356 13.213-18.569 11.172l-55.808-13.885c-8.212-2.041-13.213-10.363-11.168-18.569l5.642-22.685zM245.801 455.738l5.642-22.685c2.041-8.212 10.356-13.22 18.569-11.172l22.685 5.642c8.212 2.051 13.213 10.359 11.168 18.569l-5.642 22.688c-2.041 8.209-10.356 13.213-18.569 11.168l-22.685-5.646c-8.212-2.038-13.213-10.353-11.168-18.565zM312.525 472.34l5.642-22.685c2.041-8.216 10.356-13.213 18.569-11.168l22.685 5.639c8.212 2.045 13.213 10.359 11.168 18.572l-5.639 22.685c-2.045 8.212-10.359 13.213-18.572 11.168l-22.685-5.642c-8.212-2.041-13.213-10.356-11.168-18.569zM379.245 488.936l5.642-22.685c2.045-8.212 10.359-13.213 18.572-11.168l22.685 5.646c8.209 2.045 13.213 10.356 11.168 18.569l-5.642 22.685c-2.041 8.212-10.353 13.213-18.569 11.168l-22.685-5.646c-8.216-2.041-13.216-10.356-11.172-18.569zM445.966 505.542l5.642-22.685c2.045-8.212 10.359-13.216 18.572-11.168l22.685 5.642c8.212 2.041 13.216 10.356 11.172 18.569l-5.646 22.688c-2.041 8.212-10.356 13.213-18.569 11.168l-22.685-5.642c-8.216-2.045-13.216-10.359-11.172-18.572zM512.693 522.138l5.646-22.682c2.041-8.212 10.359-13.216 18.562-11.172l22.688 5.646c8.206 2.041 13.206 10.356 11.165 18.569l-5.642 22.685c-2.045 8.212-10.359 13.213-18.562 11.172l-22.688-5.646c-8.209-2.045-13.21-10.356-11.168-18.572zM579.417 538.743l5.642-22.685c2.041-8.212 10.353-13.213 18.565-11.168l22.685 5.642c8.212 2.045 13.213 10.356 11.165 18.569l-5.639 22.688c-2.045 8.209-10.353 13.213-18.569 11.168l-22.678-5.642c-8.212-2.045-13.223-10.359-11.172-18.572zM167.697 343.521c2.038-8.206 10.356-13.213 18.565-11.165l88.931 22.125c8.212 2.045 13.213 10.353 11.172 18.562l-5.639 22.688c-2.045 8.206-10.356 13.206-18.569 11.165l-88.934-22.132c-8.212-2.034-13.216-10.353-11.172-18.562l5.646-22.682zM329.349 423.619l-22.685-5.642c-8.209-2.045-13.21-10.356-11.168-18.562l5.646-22.688c2.041-8.209 10.356-13.213 18.569-11.165l22.685 5.639c8.209 2.041 13.213 10.353 11.168 18.562l-5.646 22.688c-2.041 8.209-10.356 13.216-18.569 11.168zM396.070 440.218l-22.685-5.642c-8.212-2.041-13.213-10.353-11.172-18.562l5.646-22.692c2.041-8.202 10.353-13.206 18.569-11.165l22.685 5.642c8.216 2.045 13.216 10.359 11.172 18.565l-5.646 22.685c-2.041 8.212-10.356 13.216-18.569 11.168zM487.011 422.97l-5.642 22.685c-2.045 8.206-10.356 13.21-18.572 11.165l-22.682-5.639c-8.219-2.045-13.22-10.359-11.175-18.569l5.642-22.685c2.041-8.212 10.356-13.213 18.572-11.165l22.682 5.639c8.216 2.041 13.216 10.359 11.175 18.569zM553.728 439.566l-5.639 22.685c-2.041 8.212-10.356 13.213-18.562 11.168l-22.692-5.646c-8.206-2.041-13.21-10.353-11.165-18.565l5.646-22.688c2.041-8.209 10.353-13.21 18.562-11.165l22.685 5.642c8.209 2.045 13.213 10.359 11.165 18.569zM620.452 456.168l-5.642 22.688c-2.038 8.209-10.356 13.21-18.569 11.165l-22.685-5.642c-8.212-2.045-13.216-10.359-11.168-18.569l5.639-22.685c2.048-8.212 10.359-13.213 18.572-11.165l22.685 5.642c8.212 2.045 13.213 10.359 11.168 18.565zM183.791 278.832c2.041-8.206 10.353-13.213 18.569-11.165l55.808 13.879c8.209 2.048 13.213 10.359 11.168 18.569l-5.642 22.688c-2.041 8.206-10.356 13.206-18.569 11.165l-55.811-13.889c-8.209-2.038-13.21-10.349-11.168-18.562l5.646-22.685zM302.203 292.506l22.685 5.646c8.212 2.045 13.213 10.353 11.172 18.562l-5.646 22.688c-2.045 8.206-10.356 13.206-18.572 11.165l-22.682-5.642c-8.216-2.045-13.216-10.359-11.172-18.565l5.646-22.685c2.041-8.209 10.356-13.206 18.569-11.168zM402.78 333.312l-5.646 22.688c-2.041 8.209-10.356 13.21-18.569 11.165l-22.685-5.639c-8.212-2.048-13.213-10.359-11.172-18.565l5.646-22.685c2.041-8.206 10.356-13.21 18.569-11.165l22.685 5.646c8.212 2.038 13.213 10.353 11.172 18.555zM469.501 349.921l-5.649 22.685c-2.041 8.206-10.353 13.213-18.565 11.165l-22.685-5.646c-8.209-2.041-13.213-10.349-11.168-18.562l5.642-22.685c2.045-8.209 10.356-13.213 18.569-11.165l22.688 5.642c8.209 2.038 13.213 10.356 11.168 18.565zM483.802 353.481c2.041-8.212 10.353-13.206 18.572-11.165l22.678 5.639c8.219 2.045 13.213 10.359 11.172 18.569l-5.646 22.685c-2.041 8.212-10.356 13.206-18.572 11.165l-22.678-5.646c-8.216-2.038-13.216-10.353-11.172-18.562l5.646-22.685zM550.533 370.077c2.034-8.202 10.346-13.21 18.562-11.165l22.685 5.639c8.206 2.041 13.216 10.356 11.165 18.565l-5.639 22.685c-2.048 8.209-10.359 13.206-18.565 11.168l-22.685-5.646c-8.206-2.041-13.21-10.356-11.165-18.562l5.642-22.685zM199.881 214.146c2.045-8.209 10.356-13.216 18.572-11.168l55.808 13.885c8.209 2.041 13.213 10.356 11.168 18.562l-5.642 22.688c-2.045 8.209-10.356 13.21-18.569 11.165l-55.808-13.882c-8.212-2.045-13.213-10.356-11.172-18.565l5.642-22.685zM298.073 238.575c2.041-8.212 10.356-13.213 18.569-11.165l45.872 11.411c8.212 2.041 13.213 10.359 11.168 18.569l-5.646 22.688c-2.041 8.202-10.353 13.206-18.565 11.165l-45.872-11.418c-8.212-2.041-13.213-10.353-11.172-18.562l5.646-22.688zM386.324 260.533c2.045-8.209 10.356-13.213 18.569-11.165l35.932 8.94c8.212 2.041 13.213 10.356 11.172 18.562l-5.642 22.688c-2.045 8.212-10.356 13.21-18.572 11.165l-35.932-8.94c-8.212-2.045-13.213-10.356-11.172-18.562l5.646-22.688zM811.66 390.455c-2.041 8.209-10.353 13.213-18.565 11.165l-320.795-79.817c-8.216-2.041-13.216-10.353-11.172-18.565l5.642-22.685c2.045-8.206 10.359-13.213 18.575-11.165l320.795 79.821c8.212 2.041 13.216 10.356 11.168 18.562l-5.649 22.685zM357.898 790.228h337.647v-41.745h-337.647v41.745zM357.898 137.448h337.647v-20.48h-337.647v20.48zM357.898 95.7h337.647v-20.48h-337.647v20.48zM999.759 438.207l-48.5 196.355c-3.106 12.582-14.469 21.217-27.655 21.002-2.157-0.038-4.321-0.321-6.438-0.843l-44.964-11.104c-3.516 5.711-4.328 13.667-5.181 22.091-1.246 12.288-2.652 26.214-12.725 37.871-7.468 8.66-17.65 13.090-29.757 12.933-16.449-0.276-34.154-9.721-46.193-24.651-1.949-2.417-4.28-5.591-6.973-9.264-10.476-14.275-29.979-40.847-45.203-42.953-3.355-0.457-6.202 0.345-9.011 2.533-10.974 8.567-6.728 17.678 6.38 37.956 4.789 7.407 9.742 15.066 12.841 22.958 4.946 12.612 1.741 20.145-1.823 24.245-6.909 7.95-20.599 9.557-40.718 4.758-21.886-5.216-44.96-10.465-69.386-16.026-32.621-7.424-66.174-15.094-100.076-23.368v11.725l-208.282-52.978v186.883c0 0.922 0.751 1.669 1.669 1.669h417.901c0.925 0 1.666-0.751 1.666-1.669v-100.209l47.787 12.363v87.846c0 27.269-22.187 49.456-49.452 49.456h-417.894c-27.269 0-49.456-22.187-49.456-49.456v-199.038l-210.896-53.634c-11.035-2.806-20.32-9.742-26.136-19.531-5.82-9.786-7.475-21.255-4.669-32.29l103.001-405.009c4.809-18.917 21.794-32.126 41.298-32.126 3.536 0 7.079 0.444 10.527 1.321l86.88 22.098v-72.94c0-27.269 22.187-49.456 49.456-49.456h417.898c27.266 0 49.452 22.187 49.452 49.456v234.165l-47.787-12.356v-221.802c0-0.925-0.748-1.669-1.666-1.669h-417.901c-0.922 0-1.669 0.754-1.669 1.669v85.094l208.285 52.972v35.212l-351.365-89.364c-4.564-1.157-9.196 1.683-10.329 6.141l-103.001 405.009c-0.754 2.97 0.259 5.308 0.928 6.434 0.672 1.13 2.243 3.137 5.209 3.895l458.554 116.62v9.434c34.912 8.554 69.502 16.466 103.11 24.115 24.46 5.567 47.568 10.824 69.519 16.060 16.415 3.908 24.832 2.338 27.245-0.433 2.147-2.475 0.307-8.032-0.587-10.301-2.594-6.615-7.168-13.687-11.592-20.528-11.244-17.388-25.238-39.025-3.325-56.132 4.734-3.693 9.96-5.55 15.589-5.55 1.208 0 2.444 0.085 3.69 0.259 20.948 2.898 41.039 30.283 54.34 48.401 2.601 3.54 4.84 6.598 6.595 8.769 9.574 11.865 23.286 19.364 35.792 19.572 5.359 0.034 13.199-1.26 19.197-8.202 7.25-8.393 8.322-19.046 9.469-30.324 0.826-8.178 1.707-16.585 5.144-24.081l-40.953-10.117c-15.124-3.738-24.443-18.859-20.777-33.703l48.5-196.366c3.106-12.575 14.473-21.21 27.651-20.992 2.157 0.041 4.325 0.321 6.438 0.84l99.533 24.593c7.274 1.792 13.445 6.246 17.381 12.547 3.997 6.386 5.209 13.896 3.417 21.146zM922.088 634.842c0.614 0.15 1.242 0.232 1.867 0.246 3.567 0.058 6.622-2.174 7.421-5.434l10.028-40.578-49.838-12.619-12.121 47.852 42.643 10.534zM816.739 601.341c-0.959 3.888 1.638 7.885 5.806 8.912l41.407 10.23 12.138-47.944-49.162-12.448-10.189 41.25zM978.982 427.892c-1.092-1.758-2.833-2.993-4.908-3.505l-99.529-24.593c-4.175-1.010-8.352 1.365-9.298 5.188l-34.338 138.998 114.47 28.986 34.502-139.667c0.447-1.83 0.126-3.751-0.898-5.407z" />
<glyph unicode="&#xe62d;" d="M512 939.52c-272.91 0-494.933-222.024-494.933-494.933 0-272.906 222.024-494.933 494.933-494.933 272.906 0 494.933 222.027 494.933 494.933 0 272.91-222.027 494.933-494.933 494.933zM512 24.248c-231.776 0-420.338 188.566-420.338 420.338 0 231.776 188.563 420.338 420.338 420.338 231.772 0 420.338-188.563 420.338-420.338 0-231.779-188.566-420.338-420.338-420.338zM512 711.424c-31.399 0-56.856-25.463-56.856-56.846 0-31.413 25.457-56.87 56.856-56.87 31.396 0 56.856 25.46 56.856 56.87 0 31.386-25.46 56.846-56.856 56.846zM512 552.991c-27.464 0-49.729-22.269-49.729-49.729v-275.78c0-27.467 22.265-49.725 49.729-49.725s49.725 22.258 49.725 49.725v275.78c0 27.46-22.262 49.729-49.725 49.729z" />
<glyph unicode="&#xe62e;" d="M940.179 320.135c0.034 0.007 0.034 0.007 0.055 0.014 83.798 107.372 41.066 265.085-85.457 315.481-0.031-0.007-0.031-0.007-0.051-0.010l-64.105 236.617c-11.801 43.56-56.683 69.284-100.274 57.48l-539.183-146.076c-79.756-21.601-127.088-104.073-105.494-183.771l142.43-525.791c21.598-79.725 104.083-127.020 183.836-105.426l473.449 128.261c79.78 21.611 127.082 104.066 105.481 183.802l-10.686 39.42zM98.27 614.123c-13.764 50.812 16.302 103.174 67.131 116.944l539.203 146.066c14.52 3.932 29.486-4.638 33.419-19.151l44.044-162.569c-9.064 0.692-18.337 0.218-27.612-2.29l-7.115 26.273-28.488 105.157c-3.943 14.537-18.885 23.118-33.426 19.182l-552.357-149.633c-14.537-3.936-23.118-18.892-19.182-33.429l28.082-103.668c-20.719 12.199-36.919 32.097-43.7 57.119zM706.788 764.844l7.112-26.273-552.343-149.623-7.119 26.27 552.35 149.627zM147.313 641.524l-7.115 26.273 552.34 149.63 7.122-26.273-552.347-149.63zM721.029 712.264l7.125-26.273-512.896-138.94c-14.176-3.84-28.396-3.97-41.935-1.513l-4.638 17.11 552.343 149.616zM831.14 149.476l-473.453-128.25c-50.829-13.767-103.214 16.268-116.985 67.097l-112.234 414.343c30.648-13.917 66.102-17.658 101.027-8.202l539.207 146.072c14.506 3.929 29.486-4.665 33.422-19.178l14.244-52.587-236.699-64.115c-72.627-19.683-115.591-94.474-95.922-167.094 19.662-72.59 94.504-115.479 167.139-95.803l236.696 64.115 10.68-39.423c13.774-50.829-16.265-103.197-67.121-116.975zM906.933 367.566l-270.295-73.22c-43.509-11.784-88.507 13.985-100.287 57.467-11.794 43.519 14.050 88.487 57.562 100.274l236.696 64.118c16.203 4.614 30.165 16.827 36.421 32.557 1.762 4.416 2.75 9.115 3.275 13.876 0.099 0.664 0.399 1.206 0.467 1.854 25.622-19.642 44.252-47.227 52.989-79.49 10.949-40.432 4.778-82.383-16.827-117.435zM601.005 425.779c-29.050-7.868-46.221-37.784-38.357-66.834 7.865-29.020 37.791-46.198 66.848-38.329 29.047 7.875 46.218 37.815 38.374 66.828-7.868 29.057-37.808 46.201-66.865 38.336z" />
<glyph unicode="&#xe62f;" d="M860.467 795.529c-93.481 93.478-217.767 144.961-349.966 144.961-132.202 0-256.495-51.483-349.972-144.961-93.481-93.481-144.964-217.767-144.964-349.969 0-132.205 51.483-256.495 144.964-349.976s217.767-144.961 349.972-144.961c132.198 0 256.488 51.48 349.966 144.961 93.481 93.484 144.968 217.771 144.968 349.976 0 132.202-51.487 256.488-144.968 349.969zM510.502 21.108c-234.421 0-424.451 190.027-424.451 424.455 0 234.414 190.027 424.445 424.451 424.445 234.411 0 424.448-190.027 424.448-424.445 0-234.431-190.037-424.455-424.448-424.455zM283.228 498.292c-29.116 0-52.729-23.613-52.729-52.729 0-29.123 23.613-52.746 52.729-52.746 29.126 0 52.739 23.624 52.739 52.746 0 29.116-23.613 52.729-52.739 52.729zM746.267 488.632h-322.703c-23.791 0-43.076-19.285-43.076-43.076s19.285-43.080 43.076-43.080h322.703c23.794 0 43.076 19.289 43.076 43.080s-19.282 43.076-43.076 43.076zM283.228 324.949c-29.116 0-52.729-23.6-52.729-52.719 0-29.116 23.613-52.746 52.729-52.746 29.126 0 52.739 23.631 52.739 52.746 0 29.119-23.613 52.719-52.739 52.719zM746.267 315.29h-322.703c-23.791 0-43.076-19.282-43.076-43.076s19.285-43.073 43.076-43.073h322.703c23.794 0 43.076 19.279 43.076 43.073s-19.282 43.076-43.076 43.076zM335.961 618.144c0-29.123-23.609-52.733-52.733-52.733s-52.733 23.609-52.733 52.733c0 29.123 23.609 52.733 52.733 52.733s52.733-23.609 52.733-52.733zM746.267 661.221h-322.703c-23.791 0-43.076-19.282-43.076-43.073s19.285-43.076 43.076-43.076h322.703c23.794 0 43.076 19.285 43.076 43.076s-19.282 43.073-43.076 43.073z" />
<glyph unicode="&#xe630;" d="M923.993 504.395c-3.028 251.74-209.111 455.605-461.984 455.605-254.74 0-462.008-206.916-462.008-461.227 0-16.101 9.298-30.624 23.412-38.376 14.145-7.762 31.904-6.871 45.472 1.775 75.179 47.845 145.77 72.093 209.814 72.093 53.381 0 99.024-17.251 139.138-52.234v-398.428c0-15.384-9.486-59.29-51.671-59.29-51.869 0-57.47 41.226-57.47 58.948 0 24.412-19.763 44.162-44.155 44.162s-44.158-19.746-44.158-44.162c0-86.685 59.938-147.261 145.78-147.261 87.617 0 139.984 75.066 139.984 147.603v398.394c40.11 35.004 85.76 52.251 139.134 52.251 64.041 0 134.636-24.252 209.814-72.076l1.034-0.659c7.212-4.594 15.439-6.898 23.706-6.898 0.092 0 0.222 0 0.321 0 24.392 0 44.155 19.77 44.155 44.162 0.027 1.891-0.079 3.765-0.317 5.618zM645.321 622.558c-68.717 0-130.185-20.941-183.31-62.321-53.101 41.397-114.582 62.321-183.296 62.321-58.010 0-118.791-14.769-181.842-44.271 36.608 167.554 186.419 293.4 365.135 293.4 178.678 0 328.492-125.815 365.124-293.332-62.795 29.361-123.699 44.203-181.811 44.203z" />
<glyph unicode="&#xe631;" d="M900.359 701.71c4.646 17.080 7.335 34.953 7.335 53.484 0.003 112.934-91.873 204.807-204.81 204.807-86.944 0-161.208-54.552-190.877-131.137-29.672 76.585-103.936 131.137-190.877 131.137-112.937 0-204.824-91.873-204.82-204.807 0-18.517 2.69-36.403 7.325-53.484-69.233-6.444-123.634-64.799-123.634-135.687v-292.782c0-34.147 27.764-61.914 61.897-61.914h128.703v-154.545c0-34.161 27.767-61.921 61.901-61.921h518.393c34.127 0 61.887 27.802 61.887 61.921v154.545h129.318c34.154 0 61.904 27.788 61.904 61.914v292.782c-0.003 70.888-54.391 129.242-123.645 135.687zM702.833 873.865c65.417 0 118.678-53.224 118.678-118.654 0-19.005-4.591-36.898-12.571-52.842-19.487-38.936-59.665-65.795-106.093-65.795-4 0-7.875 0.444-11.776 0.836-22.825 41.339-59.549 73.885-103.82 91.529-1.949 8.462-3.052 17.231-3.062 26.272-0.003 65.43 53.217 118.654 118.644 118.654zM511.703 657.432c56.337 0 103.516-39.492 115.575-92.201 1.973-8.53 3.079-17.364 3.079-26.467 0-18.995-4.574-36.898-12.554-52.842-12.885-25.764-34.949-46.039-61.788-56.941-13.708-5.594-28.593-8.881-44.302-8.881-15.507 0-30.201 3.232-43.783 8.666-27.078 10.854-49.336 31.201-62.307 57.173-7.974 15.94-12.575 33.847-12.575 52.842 0 9.021 1.099 17.77 3.021 26.231 11.974 52.828 59.221 92.419 115.633 92.419zM321.096 873.868c65.42 0 118.644-53.224 118.644-118.654 0-8.974-1.099-17.674-3.011-26.064-44.524-17.592-81.497-50.244-104.438-91.791-3.7-0.362-7.393-0.809-11.199-0.788-46.438 0-86.596 26.86-106.090 65.802-7.974 15.94-12.575 33.836-12.575 52.842 0 65.43 53.238 118.654 118.668 118.654zM190.587 349.57v-52.108h-104.451v268.544c0 27.651 22.504 50.176 50.179 50.176h34.809c34.526-37.239 82.637-61.488 136.41-65.075-0.266-4.127-0.642-8.202-0.642-12.38 0-18.514 2.697-36.4 7.325-53.484-69.229-6.441-123.631-64.816-123.631-135.673zM746.633 297.503v-216.453h-469.89v268.52c0 27.655 22.501 50.179 50.173 50.179h34.806c6.219-6.704 13.012-12.793 20.064-18.654 24.593-20.371 53.893-35.267 86.132-42.4 14.111-3.096 28.74-4.765 43.779-4.765 15.227 0 30.041 1.741 44.315 4.919 32.273 7.192 61.553 22.193 86.153 42.673 6.854 5.714 13.466 11.701 19.528 18.227h34.758c27.662 0 50.183-22.525 50.183-50.179v-52.067zM937.817 297.503h-105.032v52.067c0 70.895-54.388 129.249-123.614 135.69 4.646 17.097 7.339 34.966 7.339 53.504 0 4.154-0.372 8.233-0.608 12.343 53.975 3.444 102.27 27.737 136.94 65.092h34.796c27.658 0 50.173-22.525 50.173-50.176v-268.52z" />
<glyph unicode="&#xe632;" d="M774.926 647.509v106.516c0 104.165-74.813 188.908-166.762 188.908h-187.843c-91.969 0-166.772-84.743-166.772-188.908v-106.516c-84.647-7.854-151.129-78.742-151.129-164.792v-364.107c0-91.273 74.827-165.543 166.769-165.543h490.124c91.959 0 166.758 74.254 166.758 165.54v364.111c0.003 86.050-66.499 156.945-151.146 164.792zM329.107 754.026c0 62.498 40.916 113.35 91.215 113.35h187.843c50.299 0 91.204-50.852 91.204-113.35v-105.766h-370.261v105.766zM850.521 118.596c0-49.616-40.905-89.982-91.211-89.982h-490.124c-50.295 0-91.211 40.366-91.211 89.982v364.107c0 49.613 40.916 89.982 91.211 89.982h490.124c50.295 0 91.211-40.369 91.211-89.982v-364.107zM549.564 432.896h-70.612c-29.204 0-52.893-23.682-52.893-52.896 0-28.372 22.364-51.463 50.408-52.774v-139.909c0-20.876 16.916-37.789 37.786-37.789 20.873 0 37.779 16.913 37.779 37.789v139.909c28.058 1.3 50.422 24.399 50.422 52.774 0.007 29.215-23.682 52.896-52.89 52.896z" />
<glyph unicode="&#xe633;" d="M832.567-41.021c-0.024 49.76-0.072 99.533-0.079 149.299-0.007 262.069 0.089 496.736-0.085 758.808-0.048 60.218-33.212 92.757-93.474 92.795-132.861 0.082-265.721 0.102-398.589 0.119-52.453 0.007-88.173-36.222-88.091-89.061 0.106-66.656 0.075-133.325 0.102-199.98 0.003-6.185 0-12.373 0-20.176-10.264 0-18.391 0.017-26.525 0-4.697-0.007-8.608-0.014-11.872-0.017 6.376-0.058 6.994-0.222-22.299-0.635-35.953-0.505-66.041-24.921-74.96-59.474-3.366-13.032-3.871-27.075-3.888-40.656-0.232-180.35-0.15-333.298-0.15-513.638 0-33.201 0-66.386 0-100.188 253.433 0 321.597 0 574.761 0 0 6.175 0 11.523 0 16.886 0.051 189.017 0.092 350.635 0.133 539.651 0 23.286 0 46.575-0.154 69.854-0.358 53.2-33.894 87.74-86.927 88.057-84.46 0.509-168.919 0.198-253.385 0.225-8.54 0.003-17.084 0-26.337 0-0.297 5.7-0.703 9.701-0.707 13.698-0.038 67.116-0.041 134.24-0.038 201.349 0.003 23.286 3.468 26.757 27.098 26.764 130.12 0.020 260.243 0.020 390.369 0 24.395-0.007 27.409-3.099 27.402-27.843-0.041-299.971-0.075-572.542-0.119-872.509-0.007-18.579 0-37.144 0-56.306 23.091 0 44.397 0 67.82 0 0.003 8.506 0.007 15.739-0.007 22.979zM593.794 584.028c20.739 0 26.163-4.547 26.163-22.497 0.044-190.358-0.010-353.311-0.034-543.659 0-4.079 0-8.178 0-13.483-87.282 0-173.718 0-262.147 0 0 57.296 0 87.532 0 145.985-34.628 0-67.267 0-101.786 0 0-57.757 0-88.020 0-146.446-21.961 0-32.102 0-36.403 0-0.014 0-0.73 0-2.819 0-4.304 0-14.455 0-36.451 0 0 39.557-0.003 77.834-0.003 116.101 0.003 153.839 0.003 280.272 0.027 434.108 0.007 26.3 3.546 29.894 30.123 29.897 188.976 0.034 194.352 0.027 383.331-0.007zM213.958 650.766c-8.4 0.075-26.781-0.031 0 0v0zM501.456 716.909c0 33.331 0 65.942 0 99.523-33.98 0-66.591 0-99.775 0 0-33.539 0-66.13 0-99.523 33.495 0 66.086 0 99.775 0zM681.209 717.213c0 33.731 0 66.342 0 99.318-33.666 0-66.304 0-99.642 0 0-33.478 0-66.113 0-99.318 34.294 0 66.949 0 99.642 0zM266.011 227.014c26.842-0.577 53.712-0.133 80.575-0.393 7.209-0.072 10.95 1.707 10.875 9.813-0.266 27.761 0.13 55.538-0.297 83.299-0.041 2.857-3.843 8.079-5.97 8.117-31.266 0.522-62.556 0.355-95.42 0.355 0-32.512-0.236-63.341 0.447-94.16 0.055-2.522 6.335-6.96 9.789-7.031zM356.437 504.603c-33.727 0-66.338 0-99.891 0 0-33.27 0-65.826 0-100 33.758 0 66.379 0 99.891 0 0 33.567 0 66.509 0 100zM536.132 327.561c-33.505 0-66.144 0-99.611 0 0-33.608 0-66.284 0-99.939 33.338 0 66.342 0 99.611 0 0 33.731 0 66.4 0 99.939zM535.747 504.163c-33.871 0-66.485 0-99.14 0 0-33.802 0-66.441 0-99.618 33.198 0 65.502 0 99.14 0 0 34.062 0 67.004 0 99.618z" />
<glyph unicode="&#xe634;" d="M701.317 589.442l-205.619-254.082-205.636 254.082h411.255z" />
<glyph unicode="&#xe635;" d="M283.546 519.318h-101.277c-19.504 0-35.304-15.793-35.304-35.301 0-19.5 15.8-35.308 35.304-35.308h101.277c19.507 0 35.308 15.807 35.308 35.308 0 19.507-15.797 35.301-35.308 35.301zM283.546 406.081h-101.277c-19.504 0-35.304-15.814-35.304-35.304 0-19.494 15.8-35.304 35.304-35.304h101.277c19.507 0 35.308 15.811 35.308 35.304 0 19.49-15.797 35.304-35.308 35.304zM919.832 884.296h-435.166c-57.433 0-104.161-46.729-104.161-104.175v-91.45h-276.343c-57.433 0-104.161-46.725-104.161-104.151v-482.925c0-57.405 46.729-104.151 104.161-104.151h815.674c57.426 0 104.172 46.735 104.172 104.151v678.543c-0.041 57.429-46.746 104.158-104.175 104.158zM104.161 84.552c-9.4 0.014-17.026 7.666-17.026 17.039v482.929c0 9.38 7.625 17.009 17.009 17.009h276.347v-499.951c0-5.789 0.597-11.455 1.522-17.022h-277.852zM748.513 84.565h-97.423c0.096 1.014 0.321 1.959 0.321 2.98v197.973h97.103v-200.953zM936.847 101.594v0c-0.003-9.373-7.632-17.019-17.012-17.019h-85.012v244.125c0 23.825-19.306 43.155-43.148 43.155h-183.405c-23.825 0-43.155-19.319-43.155-43.155v-241.128c0-1.034 0.229-1.993 0.321-2.993h-80.759c-9.387 0-17.012 7.653-17.012 17.019v678.557c0 9.387 7.625 17.022 17.012 17.022h435.166c9.373 0 17.005-7.636 17.005-17.022v-678.56z" />
<glyph unicode="&#xe636;" d="M895.717 831.744c-71.7 71.697-167.042 111.189-268.438 111.189-101.407 0-196.762-39.482-268.445-111.193-71.704-71.697-111.183-167.042-111.183-268.442 0-86.927 29.085-169.353 82.551-236.302l-300.554-300.558c-16.78-16.773-16.78-43.994 0-60.788 16.79-16.773 43.994-16.773 60.785 0l300.558 300.568c66.942-53.453 149.357-82.565 236.308-82.565 101.4 0 196.731 39.479 268.435 111.196 71.694 71.704 111.2 167.038 111.2 268.442 0 101.393-39.523 196.748-111.217 268.452zM845.070 345.494c-58.187-58.18-135.52-90.197-217.805-90.214-82.275 0-159.621 32.034-217.801 90.214-58.177 58.18-90.204 135.52-90.204 217.798 0 82.289 32.027 159.621 90.204 217.812 58.18 58.173 135.513 90.211 217.801 90.211 82.275 0 159.618-32.034 217.791-90.211 58.18-58.177 90.218-135.523 90.218-217.801 0-82.272-32.038-159.628-90.204-217.808zM858.873 666.89c-1.608 4.69-5.506 8.195-10.319 9.308-4.799 1.147-9.871-0.328-13.36-3.816l-37.325-37.325c-3.434-3.437-4.898-8.376-3.884-13.135 2.799-13.066 4.219-26.15 4.219-38.868 0-48.957-19.060-94.956-53.681-129.55-43.581-43.578-104.933-63.065-168.414-49.422-4.765 1.031-9.708-0.451-13.135-3.888l-37.325-37.318c-3.495-3.499-4.936-8.54-3.83-13.353 1.123-4.813 4.625-8.707 9.301-10.332 26.962-9.247 55.153-13.93 83.794-13.93h0.085c68.83 0 133.574 26.808 182.262 75.489 48.691 48.698 75.51 113.452 75.51 182.31 0.041 28.645-4.646 56.859-13.899 83.828z" />
<glyph unicode="&#xe637;" d="M520.4 919.040l-520.4-458.301c0 0 14.288-26.344 44.52-26.344 15.138 0 34.266 6.588 57.62 26.344l37.082 31.348v-457.376c0 0-0.853-22.907 21.463-22.907 27.829 0 258.092 0.297 258.092 0.297l0.444 211.459c0 0-3.7 34.864 30.194 34.864h107.104c40.008 0 37.485-34.864 37.485-34.864l-0.447-210.76c0 0 218.348 0 252.658 0 28.382 0 27.092 28.501 27.092 28.501v456.779l39.26-35.232c27.020-19.47 48.374-26.016 64.881-26.016 33.014 0 46.558 26.016 46.558 26.016l-503.607 456.192zM797.512 498.080v-409.528h-128.007l0.294 133.629c0.369 14.578-2.106 48.589-28.901 77.346-20.801 22.391-50.773 34.635-84.412 34.635h-107.104c-31.27 0-59.283-11.953-78.896-33.754-25.87-28.641-27.829-63.133-27.092-79.046l-0.259-133.56c-40.892-0.038-90.556-0.106-128.157-0.147v461.418l304.719 268.308 277.818-251.651v-67.649z" />
<glyph unicode="&#xe638;" d="M988.6 498.289c-43.424 42.308-110.653 42.912-163.987 1.147l-10.148-8.206v331.506c0 60.617-44.868 109.957-100.038 109.957h-422.485c-55.163 0-100.048-49.326-100.048-109.957v-449.423l-163.895-131.345c-32.195-25.795-37.396-72.97-11.595-105.172l115.063-143.589c14.752-18.398 36.519-27.976 58.45-27.976 16.422 0 32.928 5.362 46.711 16.401l112.657 90.286c3.028 2.42 7.953 4.4 14.995 5.96l279.631-0.239c0.713 0.027 1.519 0.027 2.307 0.085 44.404 2.772 87.784 20.893 128.952 53.852 0.427 0.348 0.86 0.693 1.26 1.055 5.642 4.943 138.96 121.832 206.821 187.064 25.754 24.788 40.622 58.829 40.748 93.423 0.079 32.56-12.486 62.816-35.4 85.169zM273.033 822.736c-0.003 16.493 9.984 28.815 18.91 28.815h422.465c8.919 0 18.903-12.319 18.903-28.815v-397.179l-38.97-31.563c-20.262 24.73-51.063 39.902-85.139 39.54l-290.983 0.027c-0.833 0.061-1.69 0.082-2.553 0.082-1.263-0.027-2.56-0.058-3.826-0.109-0.345 0-0.669-0.031-1.010-0.061-13.527-0.717-26.023-3.659-37.796-7.892v397.155zM932.093 372.838c-64.29-61.795-193.468-175.254-203.653-184.187-28.532-22.695-57.354-35.229-85.729-37.26l-282.194 0.225c-2.304 0-4.628-0.225-6.898-0.642-13.329-2.56-33.068-7.54-50.49-21.514l-112.64-90.279c-0.447-0.375-1.113-0.321-1.488 0.16l-115.053 143.544c-0.352 0.471-0.294 1.13 0.16 1.498l180.937 145.019c22.228 17.807 40.032 29.174 59.174 30.372h295.755c18.865-0.28 34.744-14.718 35.151-33.676 0.205-9.196-3.198-17.923-9.551-24.542-6.393-6.653-14.947-10.411-23.286-10.605l-244.835 0.519c-0.027 0-0.058 0-0.075 0-20.323 0-36.837-16.486-36.884-36.833-0.048-20.374 16.432-36.905 36.82-36.939l245.692-0.495c28.925 0.608 55.828 12.442 75.831 33.287 18.115 18.865 28.57 43.1 29.938 68.939 1.611 0.932 3.198 2.034 4.693 3.243l147.135 119.084c19.405 15.223 47.486 22.258 66.533 3.741 8.465-8.284 13.141-19.688 13.1-32.113-0.096-14.756-6.68-29.539-18.142-40.547zM504.173 607.706c15.49 0 28.068-10.977 28.068-24.446 0-13.486-12.599-24.467-28.068-24.467-12.192 0-22.934 6.827-26.73 16.968-5.779 15.445-22.979 23.344-38.448 17.545-15.466-5.769-23.334-22.985-17.548-38.444 8.875-23.781 28.365-41.8 52.156-50.33l-0.311-14.087c-0.358-16.514 12.715-30.174 29.211-30.539 0.242 0 0.461 0 0.679 0 16.2 0 29.505 12.937 29.853 29.211l0.307 14.804c34.12 11.568 58.658 42.721 58.658 79.34 0 46.425-39.4 84.21-87.825 84.21-15.466 0-28.071 10.977-28.071 24.45 0 13.462 12.602 24.443 28.071 24.443 12.206 0 22.948-6.82 26.723-16.951 5.796-15.476 22.996-23.337 38.444-17.545 15.469 5.775 23.327 22.989 17.555 38.438-9.032 24.211-29.082 42.516-53.46 50.831l-0.389 17.824c-0.355 16.514-14.271 30.157-30.532 29.215-16.497-0.355-29.57-14.029-29.211-30.539l0.365-16.852c-33.413-11.936-57.327-42.725-57.327-78.865-0.007-46.438 39.4-84.214 87.828-84.214z" />
<glyph unicode="&#xe639;" d="M512-64.017c282.327 0 512 229.676 512 512 0 282.327-229.673 512.017-512 512.017s-512-229.69-512-512.017c0-282.324 229.673-512 512-512zM88.044 447.983c0 61.413 13.233 119.753 36.823 172.5l256.642-148.173c-4.97-26.467-2.109-54.637 10.182-80.824 15.336-32.655 43.373-56.917 76.445-68.594v-296.602c-213.238 22.013-380.092 202.728-380.092 421.693zM534.463 400.118c-7.113-3.342-14.647-5.035-22.409-5.035-20.422 0-39.243 11.926-47.92 30.42-12.397 26.402-1 57.952 25.388 70.345 7.12 3.345 14.664 5.038 22.426 5.038 20.439 0 39.243-11.943 47.92-30.423 12.394-26.392 1.014-57.948-25.405-70.345zM556.175 26.327v296.346c4.161 1.471 8.271 3.096 12.319 5.004 55.979 26.276 84.931 86.835 73.974 144.968l256.546 148.122c23.668-52.815 36.939-111.258 36.939-172.78 0.003-218.86-166.687-399.493-379.778-421.659zM512 871.956c140.803 0 265.725-69.048 342.869-175.012l-256.471-148.074c-23.712 20.244-54.272 32.055-86.453 32.055-19.613 0-38.608-4.25-56.443-12.629-11.175-5.243-21.183-11.96-30.116-19.651l-256.43 148.043c77.135 106.1 202.131 175.268 343.043 175.268z" />
<glyph unicode="&#xe63a;" d="M49.135 447.147c1.843 0.242 3.68 0.553 5.506 0.935 0.236 0.044 0.481 0.079 0.717 0.133 2.092 0.464 4.161 1.024 6.185 1.642 0.43 0.133 0.853 0.287 1.283 0.42 1.601 0.519 3.168 1.068 4.693 1.666 0.485 0.188 0.966 0.365 1.437 0.563 1.768 0.717 3.482 1.457 5.103 2.239 0.082 0.044 0.171 0.075 0.249 0.109 1.713 0.84 3.321 1.71 4.833 2.58 0.379 0.218 0.734 0.43 1.096 0.652 1.116 0.672 2.164 1.345 3.133 2.017 0.341 0.242 0.696 0.474 1.014 0.717 1.181 0.86 2.277 1.71 3.174 2.54 3.618 3.475 7.291 6.608 10.977 9.588 1.048 0.84 2.103 1.642 3.157 2.447 2.874 2.198 5.762 4.26 8.666 6.178 0.928 0.618 1.85 1.27 2.775 1.853 3.714 2.342 7.441 4.482 11.189 6.39 0.72 0.375 1.451 0.672 2.174 1.027 3.099 1.512 6.195 2.891 9.301 4.137 1.13 0.454 2.256 0.884 3.386 1.304 3.13 1.157 6.25 2.185 9.373 3.089 0.686 0.198 1.369 0.44 2.055 0.618 3.734 1.014 7.458 1.833 11.168 2.516 1.038 0.188 2.068 0.331 3.099 0.498 2.826 0.451 5.632 0.816 8.431 1.092 1.109 0.099 2.212 0.222 3.311 0.311 3.642 0.266 7.264 0.44 10.844 0.44 0.044 0 0.089 0.010 0.126 0.010 0.297 0 0.591-0.034 0.887-0.034 3.161-0.020 6.294-0.143 9.4-0.352 1.133-0.079 2.239-0.177 3.359-0.276 2.389-0.212 4.755-0.474 7.1-0.782 1.109-0.143 2.212-0.276 3.304-0.44 2.813-0.43 5.588-0.925 8.329-1.478 0.485-0.089 0.976-0.164 1.457-0.266 3.171-0.672 6.277-1.434 9.332-2.239 0.993-0.263 1.959-0.553 2.935-0.826 2.15-0.608 4.27-1.236 6.356-1.908 1.014-0.321 2.024-0.642 3.024-0.983 2.263-0.761 4.468-1.556 6.646-2.372 0.635-0.242 1.29-0.474 1.922-0.717 2.731-1.058 5.379-2.15 7.956-3.277 0.771-0.341 1.498-0.686 2.256-1.027 1.853-0.84 3.663-1.676 5.427-2.526 0.84-0.42 1.666-0.816 2.488-1.236 1.744-0.87 3.427-1.754 5.065-2.635 0.601-0.321 1.229-0.642 1.819-0.973 2.14-1.181 4.188-2.362 6.124-3.519 0.519-0.321 0.983-0.618 1.485-0.925 1.444-0.881 2.83-1.754 4.147-2.615 0.601-0.396 1.174-0.782 1.748-1.167 1.191-0.806 2.318-1.587 3.386-2.348 0.457-0.331 0.925-0.662 1.355-0.983 1.406-1.027 2.714-2.031 3.874-2.97 0.205-0.177 0.358-0.321 0.556-0.485 0.956-0.782 1.809-1.522 2.563-2.219 0.297-0.276 0.553-0.519 0.812-0.771 0.591-0.573 1.109-1.103 1.55-1.591 0.188-0.208 0.386-0.42 0.546-0.618 0.529-0.631 0.952-1.205 1.181-1.655 0.195 0.020 0.782 0.218 1.44 0.44 0.498 0.167 1.103 0.386 1.778 0.631 17.166 6.267 100.041 40.523 121.528 52.125 0 0 16.947-12.704 29.187-20.227 11.585 2.891 66.799 22.876 119.651 22.876 7.27 0 14.52-0.379 21.579-1.236 1.83-0.222 3.625-0.331 5.383-0.331 50.534 0 70.591 89.214 38.38 124.744-0.536 0.597-1.12 1.147-1.686 1.717-1.949 1.935-4.007 3.789-6.308 5.328-1.393 0.925-2.847 1.727-4.359 2.4-0.587 0.266-1.222 0.42-1.819 0.645-0.959 0.358-1.901 0.751-2.895 1.021-0.823 0.218-1.7 0.324-2.533 0.485-0.84 0.16-1.645 0.379-2.505 0.485-1.004 0.123-2.055 0.133-3.086 0.181-0.754 0.041-1.471 0.133-2.239 0.133-0.034 0-0.068-0.007-0.085-0.007-2.901-0.003-5.932-0.324-9.032-0.816-0.454-0.079-0.908-0.123-1.355-0.205-2.99-0.536-6.062-1.3-9.196-2.222-0.611-0.181-1.208-0.362-1.812-0.553-3.147-0.993-6.339-2.14-9.591-3.458-0.522-0.215-1.058-0.454-1.587-0.679-3.41-1.434-6.84-2.987-10.315-4.717-0.034-0.017-0.072-0.038-0.106-0.055-3.495-1.754-7.021-3.669-10.547-5.673-0.498-0.283-0.993-0.556-1.498-0.843-3.372-1.942-6.748-3.994-10.107-6.106-0.635-0.399-1.246-0.795-1.877-1.198-3.342-2.13-6.653-4.325-9.929-6.571-0.505-0.348-1.004-0.696-1.498-1.041-6.888-4.765-13.582-9.704-19.937-14.609-0.444-0.341-0.884-0.679-1.324-1.014-3.028-2.348-5.949-4.683-8.789-6.977-0.502-0.403-1-0.812-1.495-1.208-2.802-2.284-5.513-4.523-8.090-6.697-0.362-0.304-0.717-0.601-1.075-0.911-5.335-4.512-10.124-8.718-14.199-12.384-0.27-0.242-0.556-0.498-0.816-0.734-1.898-1.71-3.615-3.287-5.168-4.724-0.294-0.27-0.58-0.539-0.86-0.799-1.454-1.355-2.765-2.591-3.843-3.625-0.171-0.167-0.314-0.304-0.474-0.457-1.055-1.014-1.969-1.905-2.577-2.509 3.884 3.884 0 10.592 0 10.592-0.628 0.655-1.29 1.085-1.997 1.423-0.212 0.099-0.44 0.154-0.662 0.225-0.543 0.181-1.12 0.29-1.737 0.324-0.307 0.017-0.608 0.044-0.939 0.027-0.28-0.010-0.577-0.041-0.877-0.079-0.485-0.061-0.993-0.147-1.529-0.266-0.324-0.072-0.642-0.133-0.986-0.218-0.618-0.154-1.28-0.355-1.969-0.563-0.338-0.099-0.635-0.181-0.986-0.29-1.031-0.331-2.133-0.7-3.348-1.12-1.246-0.43-2.615-0.905-4.076-1.406-0.379-0.126-0.771-0.259-1.167-0.393-1.164-0.396-2.383-0.806-3.697-1.229-0.618-0.205-1.246-0.403-1.905-0.608-1.242-0.399-2.553-0.795-3.925-1.205-0.727-0.215-1.44-0.427-2.202-0.645-1.512-0.43-3.133-0.867-4.799-1.307-0.737-0.191-1.423-0.386-2.195-0.577-2.485-0.628-5.11-1.253-7.943-1.871-0.171-0.038-0.369-0.072-0.546-0.109-2.635-0.57-5.444-1.12-8.414-1.666-1.021-0.181-2.13-0.358-3.188-0.539-2.263-0.393-4.584-0.768-7.035-1.133-1.331-0.198-2.707-0.386-4.093-0.573-2.417-0.331-4.932-0.645-7.537-0.942-1.512-0.177-3.024-0.348-4.608-0.512-2.864-0.297-5.881-0.563-8.963-0.816-1.475-0.123-2.881-0.253-4.407-0.362-4.69-0.341-9.571-0.642-14.773-0.867-64.963 0.707-66.024 18.36-96.386 34.953-1.823 0.993-3.85 1.809-6.025 2.492-0.727 0.232-1.556 0.375-2.318 0.573-1.516 0.396-3.045 0.788-4.69 1.062-0.976 0.164-2.017 0.259-3.034 0.379-1.563 0.195-3.13 0.375-4.765 0.481-1.137 0.072-2.311 0.092-3.482 0.126-1.7 0.044-3.407 0.082-5.171 0.055-0.894-0.017-1.799-0.038-2.703-0.075-2.041-0.072-4.116-0.195-6.205-0.355-0.782-0.055-1.563-0.099-2.348-0.171-2.854-0.253-5.731-0.563-8.622-0.942-0.403-0.055-0.806-0.119-1.201-0.177-2.526-0.341-5.052-0.727-7.567-1.14-0.928-0.154-1.843-0.321-2.758-0.481-2.068-0.362-4.116-0.744-6.147-1.14-0.87-0.171-1.748-0.341-2.608-0.512-2.437-0.502-4.837-1.014-7.182-1.543-0.338-0.072-0.689-0.143-1.021-0.222-2.683-0.611-5.274-1.236-7.779-1.857-0.71-0.177-1.386-0.348-2.075-0.526-1.792-0.457-3.536-0.905-5.195-1.352-0.734-0.191-1.461-0.386-2.161-0.577-1.666-0.451-3.256-0.894-4.745-1.318-0.44-0.123-0.915-0.253-1.335-0.375-1.888-0.543-3.635-1.055-5.168-1.519-0.27-0.075-0.485-0.147-0.744-0.225-1.219-0.369-2.321-0.707-3.256-0.997-0.355-0.109-0.683-0.215-0.993-0.311-0.734-0.236-1.406-0.447-1.874-0.601-0.143-0.051-0.348-0.113-0.468-0.15-0.386-0.133-0.744-0.249-0.744-0.249-37.072-12.005-31.423-20.832-24.716-28.948-60.020-15.183-94.133-73.397-106.271-92.508 1.451-1.28 3.024-2.342 4.656-3.277 0.495-0.287 1.021-0.519 1.526-0.782 1.215-0.608 2.454-1.137 3.741-1.587 0.56-0.188 1.116-0.386 1.69-0.553 1.505-0.44 3.045-0.782 4.622-1.024 0.321-0.055 0.625-0.143 0.949-0.177 1.935-0.266 3.912-0.386 5.915-0.399 0.427 0 0.853 0.034 1.28 0.034 1.683 0.034 3.383 0.133 5.079 0.311 0.526 0.051 1.082 0.109 1.642 0.184zM860.061 479.894c-19.975 0-39.008-4.014-56.385-11.199l-53.729 97.417c5.895-2.263 11.936-3.608 16.425-3.608h3.304c12.476 0 22.589 10.117 22.589 22.596v42.366c0 12.479-10.114 22.596-22.589 22.596h-3.304c-8.967 0-24.020-5.267-31.84-12.844l-23.767-0.082-6.687 12.114-27.795 51.343-87.887 7.093c-9.226 0.758-17.5-6.195-18.261-15.527-0.754-9.329 6.199-17.504 15.524-18.255l69.574-5.615 18.384-33.382c12.008-25.016 11.708-56.726 4.028-82.108-11.66-38.54-38.912-62.467-71.107-62.467-2.669 0-5.393 0.164-8.096 0.485-5.871 0.717-12.227 1.068-18.865 1.068-40.738 0.010-85.023-13.459-103.933-19.22-4.601-1.399-8.1-2.437-10.25-2.98l-9.213-2.294-8.090 4.966c-6.366 3.915-13.752 9.015-19.705 13.251-28.979-13.428-90.392-39.687-112.34-47.278 16.428-17.807 41.67-41.663 61.498-57.296 4.065-20.047 8.090-38.571 10.803-53.402l-49.145 8.564c-2.205 79.718-67.366 143.698-147.61 143.698-81.633 0-147.814-66.178-147.814-147.811s66.181-147.811 147.814-147.811c68.714 0 126.314 46.957 142.872 110.486l79.063-8.113c10.499-1.819 26.088-2.58 49.688-1.171 70.615 4.236 98.393-9.424 136.523 40.953 23.060 34.833 106.38 219.836 109.681 227.84 0.696 1.676 2.229 5.065 3.509 9.23l61.249-111.271c-37.458-26.808-61.945-70.574-61.945-120.149 0-81.633 66.188-147.814 147.828-147.814 81.63 0 147.821 66.181 147.821 147.814s-66.191 147.818-147.821 147.818zM125.338 316.208l164.454-16.865c-13.711-41.134-52.46-70.823-98.198-70.823-57.194 0-103.567 46.37-103.567 103.567s46.37 103.567 103.567 103.567c53.159 0 96.915-40.069 102.827-91.651l-162.546 28.32c-14.121 1.645-26.743-7.069-28.191-19.459l-1.307-11.22c-1.444-12.407 8.837-23.794 22.961-25.436zM860.061 228.516c-57.201 0-103.574 46.37-103.574 103.567 0 32.857 15.346 62.082 39.223 81.060l53.275-96.782c3.089-5.605 8.885-8.755 14.855-8.755 2.772 0 5.584 0.669 8.178 2.109 8.192 4.519 11.172 14.828 6.646 23.020l-53.388 96.806c10.878 3.888 22.545 6.11 34.775 6.11 57.194 0 103.567-46.37 103.567-103.567s-46.363-103.567-103.557-103.567z" />
<glyph unicode="&#xe63b;" d="M990.863 316.788c-11.315 3.792-23.484-2.348-27.249-13.619-4.553-13.674-52.698-32.393-76.493-32.393h-71.871l-15.705 42.319c26.464 4.342 45.408 7.939 49.203 8.359 12.117 1.348 66.635 65.294 65.963 78.756-0.406 14.189-93.713 61.996-176.428 98.383 0.089 1.188 0.324 2.342 0.324 3.55-0.031 17.487-11.718 40.192-44.564 46.647-10.738 2.106-36.209 20.995-96.655 99.017-5.646 7.305-8.462 10.916-10.506 13.23-4.26 4.806-10.175 7.267-16.142 7.267-4.983 0-10.004-1.724-14.070-5.239-10.745-9.288-10.11-23.566-4.997-48.34 1.669-8.055 4.724-20.89 7.52-29.324-1.43-2.905-4.192-6.926-5.827-8.54-1.673-1.318-3.488-3.195-5.079-5.632-16.323 22.525-35.813 49.323-45.937 59.546-0.495 0.826-1.041 1.632-1.7 2.376-5.895 6.704-16.097 7.352-22.801 1.471l-55.815-49.043c-6.7-5.891-7.363-16.101-1.471-22.804 3.198-3.632 7.656-5.489 12.141-5.489 3.785 0 7.588 1.324 10.66 4.017l28.604 25.136 46.319-42.018c-36.454-2.113-68.775-6.26-77.452-10.267-1.345-0.621-2.601-1.461-3.833-2.444 0.273-0.488 0.683-0.853 0.932-1.355 5.13-10.496 2.734-23.385-6.574-35.345-26.317-33.836-68.949-38.42-86.057-38.82-2.12-0.048-5.543-0.119-9.998-0.119-47.933 0-161.911 8.24-184.808 84.576-0.253 0.84-0.352 1.857-0.543 2.782-16.951 1.55-46.206 3.881-90.115 6.209 4.71-7.407 19.521-80.777 19.521-98.949 0-8.028 0.133-11.329 0.28-12.663-1.495 0.502-7.646 2.553-19.797 6.605-14.138 4.714-30.966-26.245-31.638-34.331-0.672-8.076 16.155-17.5 61.256-14.807 8.134 0.485 27.621-1.946 54.327-6.291-46.128-27.89-103.311-62.464-113.067-68.345-9.95-5.994-18.691-19.193-13.384-38.284 7.059-25.385 38.407-54.88 68.256-54.88h334.548c26.569 0 137.472 53.856 174.275 72.151 1.065-0.201 2.307-0.43 3.26-0.601 41.366-7.277 112.995 0.488 169.308 8.772l13.821-37.243h-149.466c-11.892 0-21.542-9.646-21.542-21.545 0-11.892 9.646-21.542 21.542-21.542h255.788c26.648 0 103.1 19.012 117.371 61.843 3.755 11.291-2.342 23.494-13.633 27.262zM420.137 270.769h-334.548c-7.516 0-19.2 10.336-24.327 18.207 28.17 17.015 109.947 66.471 146.872 88.812 97.304-18.261 230.516-46.394 316.256-64.010-42.288-19.705-92.433-41.772-104.253-43.008zM712.994 489.428c-0.147-0.215-0.338-0.42-0.495-0.638-0.782-1.075-1.662-2.106-2.632-3.086-0.365-0.362-0.758-0.71-1.147-1.058-0.884-0.788-1.85-1.529-2.871-2.229-0.502-0.348-1.010-0.7-1.556-1.021-1.092-0.652-2.273-1.225-3.499-1.768-0.546-0.246-1.065-0.519-1.649-0.744-1.843-0.696-3.785-1.297-5.891-1.717-2.632-0.526-5.547-1-8.54-1.447-0.686-0.099-1.369-0.201-2.062-0.3-3.045-0.416-6.205-0.799-9.496-1.116-0.399-0.038-0.819-0.065-1.225-0.099-3.058-0.276-6.205-0.498-9.407-0.672-0.672-0.038-1.348-0.075-2.021-0.109-3.492-0.157-7.028-0.246-10.561-0.256-0.819 0-1.645 0.017-2.488 0.020-2.031 0.017-4.048 0.061-6.062 0.126-0.99 0.038-1.966 0.079-2.956 0.126-1.932 0.099-3.86 0.229-5.762 0.382-0.935 0.079-1.888 0.147-2.806 0.236-2.195 0.215-4.335 0.485-6.441 0.782-0.56 0.079-1.133 0.133-1.693 0.222-2.611 0.403-5.134 0.884-7.574 1.434-0.621 0.143-1.191 0.321-1.785 0.471-1.768 0.44-3.488 0.915-5.12 1.44-0.782 0.253-1.505 0.526-2.253 0.799-1.386 0.502-2.714 1.051-3.973 1.632-0.693 0.328-1.389 0.649-2.041 1-1.232 0.645-2.355 1.352-3.434 2.079-0.495 0.348-1.041 0.669-1.498 1.034-1.44 1.133-2.748 2.335-3.785 3.659-1.147 1.461-2.294 3.154-3.43 4.943-0.328 0.519-0.649 1.068-0.986 1.615-0.864 1.44-1.727 2.956-2.567 4.536-0.27 0.505-0.543 0.99-0.809 1.509-1.068 2.072-2.113 4.233-3.12 6.465-0.222 0.481-0.427 0.966-0.638 1.447-0.829 1.867-1.632 3.768-2.406 5.69-0.249 0.638-0.502 1.273-0.758 1.911-0.887 2.26-1.741 4.543-2.536 6.803-0.031 0.099-0.072 0.201-0.102 0.3-0.864 2.478-1.659 4.932-2.4 7.335-0.113 0.403-0.225 0.799-0.355 1.201-0.212 0.72-0.379 1.386-0.591 2.096-0.502 1.751-1.004 3.495-1.41 5.154-0.328 1.266-0.567 2.427-0.829 3.622-0.212 0.932-0.464 1.939-0.642 2.823-1.427 7.339-1.611 12.681 0.020 13.906 5.386 4.041 17.5 21.542 14.138 28.945s-14.81 53.787-10.097 57.856c10.097-11.411 81.446-111.712 119.142-119.112 15.22-2.987 23.528-10.817 26.156-19.473 1.929-6.328 0.775-13.090-3.058-18.753z" />
<glyph unicode="&#xe63c;" d="M188.583 554.656h140.636v-107.79h-140.636v107.79zM188.583 404.47h140.636v-107.79h-140.636v107.79zM188.583 250.87h140.636v-107.79h-140.636v107.79zM666.45 554.656h140.636v-107.79h-140.636v107.79zM666.45 404.47h140.636v-107.79h-140.636v107.79zM666.45 250.87h140.636v-107.79h-140.636v107.79zM407.979 525.896h86.026v-240.903h-86.026v240.903zM517.205 525.896h86.026v-240.903h-86.026v240.903zM507.146 655.271c-54.764 0-99.164-44.394-99.164-99.161h198.328c-0.003 54.764-44.401 99.161-99.164 99.161zM948.593 13.008h-23.112c0.007 0.259 0.041 0.509 0.041 0.778v675.294c0 0.212 1.311 0.905 1.3 0.905h60.314c0 0-288.751 208.275-315.583 227.645-26.839 19.371-26.839 19.371-82.418 19.128l-159.696 0.007c-43.114 0.143-52.436 0.652-82.408-20.105-29.972-20.763-314.231-226.679-314.231-226.679h60.969c-0.003 0 1.283-0.689 1.283-0.905v-675.308c0-0.256 0.031-0.509 0.034-0.771h-19.050c-12.998 0-23.535-10.544-23.535-23.538v-18.985c0-13.005 10.537-23.538 23.535-23.538h872.55c13.005 0 23.538 10.537 23.538 23.538v18.985c0.010 13.008-10.527 23.549-23.532 23.549zM875.090 13.773c0-0.239-0.044-0.498-0.082-0.775h-268.885v194.635c0 15.715-12.547 28.447-28.262 28.447h-141.404c-15.718 0-28.699-12.728-28.699-28.447v-194.632h-262.246c-0.010 0.273-0.020 0.536-0.020 0.778v675.301c0 0.225 0.133 0.905 0.143 0.905h729.3c0.031 0 0.157-0.686 0.157-0.905v-675.308z" />
<glyph unicode="&#xe63d;" d="M894.901 926.956c-20.401 16.193-50.067 12.776-66.26-7.632l-84.453-106.431c-53.268 61.457-131.847 100.386-219.563 100.386h-33.161c-160.461 0-290.543-130.079-290.543-290.543v-360.98c0-38.007 7.373-74.267 20.64-107.534l-103.482-130.427c-16.189-20.408-12.776-50.074 7.632-66.26 8.673-6.881 19.012-10.226 29.286-10.226 13.899 0 27.668 6.127 36.98 17.852l82.282 103.707c53.221-59.887 130.782-97.659 217.204-97.659h33.161c160.461 0 290.536 130.079 290.536 290.546v360.98c0 36.553-6.813 71.499-19.128 103.721l106.506 134.236c16.186 20.405 12.766 50.070-7.639 66.263zM295.25 261.755v360.98c0 108.189 88.020 196.209 196.209 196.209h33.161c65.58 0 123.706-32.372 159.355-81.944l-388.171-489.213c-0.328 4.611-0.553 9.26-0.553 13.967zM720.835 261.755c0-108.192-88.020-196.209-196.209-196.209h-33.161c-64.259 0-121.402 31.055-157.211 78.933l386.355 486.936c0.126-2.881 0.225-5.769 0.225-8.677v-360.984z" />
</font>
</defs>
</svg>
